<svg xmlns="http://www.w3.org/2000/svg" viewBox="0 0 117.35 96.22"><defs><style>.cls-1{fill:#fff;}.cls-2{fill:#575757;}</style></defs><title>Asset 1</title><g id="Layer_2" data-name="Layer 2"><g id="OBJECTS"><path class="cls-1" d="M73.29,16.76A1.29,1.29,0,0,0,73,19.27c7.46,2.42,3,11.59,3.69,16.9a.93.93,0,0,0,1.56.64C82.6,32.57,82,15.71,73.29,16.76Z"/><path class="cls-1" d="M47.36,25.19a10.64,10.64,0,0,0-7-5.08A1,1,0,0,0,39.84,22,9.34,9.34,0,0,1,45,26.94c.86,1.84.53,4.12,1.57,5.82a.66.66,0,0,0,1,.13C49.77,31.16,48.49,27.2,47.36,25.19Z"/><path class="cls-1" d="M19.9,42.65c-1.27-2.51-3.56-4.89-6.59-4.13A1.25,1.25,0,0,0,13.64,41c5.13,0,4.62,9.12,7.25,12a.58.58,0,0,0,.9-.12C23.08,49.88,21.28,45.36,19.9,42.65Z"/><path class="cls-2" d="M30.68,93.5c-3.85,1.73-11.3,4.48-15.1,1.18-2.64-2.29-2.5-8.06-2.31-11.22.6-10,6.28-19.84,12.28-27.59,7.18-9.25,17.92-16.32,29.63-16.71,8.88-.3,17.64,3.26,24.58,8.82S91.94,61,96,68.92c2,3.86,3.69,8,3.76,12.34s-1.86,8.93-5.67,11c-3.06,1.66-6.83,1.47-10.14.39s-6.29-2.94-9.35-4.59c-5.65-3-11.92-5.41-18.33-5C47,83.6,39.14,89.7,30.68,93.5Z"/><path class="cls-2" d="M21.9,44.68c1.14,9.37-6,14.47-13.25,7.42C4.19,47.78.72,40.1.09,33.92c-.31-3.12.07-6.64,2.42-8.71s5.77-2,8.45-.65a15.86,15.86,0,0,1,6.2,6.35A34.83,34.83,0,0,1,21.9,44.68Z"/><path class="cls-2" d="M48.78,19.44c1.49,6.31-.28,16-8.81,15.33-10.2-.86-11.38-18.46-10.28-25.71.42-2.72,1.47-5.76,4-6.76a6,6,0,0,1,5.38.92,15.66,15.66,0,0,1,3.78,4.2A36.78,36.78,0,0,1,48.78,19.44Z"/><path class="cls-2" d="M84.25,15.32c.09-4.18-.84-8.57-3.58-11.72S73.07-1.08,69.37.86s-5.26,6.75-5.89,11c-.87,5.83-2.26,16.54,2,21.45,2.66,3.07,6.66,1.47,9.71-.3C81.19,29.56,84.11,22,84.25,15.32Z"/><path class="cls-2" d="M109.34,53.55c-6,5.66-18.27,3.91-17.18-5.86.73-6.6,5.22-13.4,9.3-18.47,2.48-3.09,6.12-6.08,10-5.21,3.07.68,5.18,3.71,5.72,6.81s-.2,6.26-1,9.3C114.79,45,113,50.06,109.34,53.55Z"/><path class="cls-1" d="M65.36,45.71c0-.16-.09-.31-.11-.47a2.53,2.53,0,0,0-4.75-.31A2.54,2.54,0,0,0,61,47.7a2.62,2.62,0,0,0,3.06.39c-.68.34.24-.08.37-.15A2,2,0,0,0,65.36,45.71Z"/><path class="cls-1" d="M71.86,48.41c-1.38-.66-3,1.06-1.73,2.24,4.69,4.4,9.75,7.8,13.47,13.21A28.36,28.36,0,0,1,88.09,86.1c-.67,3.09,4.2,4.3,4.66,1.29A36.55,36.55,0,0,0,71.86,48.41Z"/><path class="cls-1" d="M110.53,28.78c-1.29-.67-2.73,1-1.6,2.08,2.49,2.38,1,7.9.31,10.63-.67,2.46-2.13,4.64-2.22,7.2a1.06,1.06,0,0,0,1.59.91c3.14-2.25,4.07-7.3,4.55-10.93C113.61,35.27,114.11,30.65,110.53,28.78Z"/></g></g></svg>