<svg height="408pt" viewBox="-7 0 408 408.19707" width="408pt" xmlns="http://www.w3.org/2000/svg"><path d="m359.320312 156.402344h-230.023437v-67.996094c0-22.535156-18.269531-40.800781-40.800781-40.800781s-40.800782 18.265625-40.800782 40.800781v149.597656c0 45.066406 36.535157 81.597656 81.601563 81.597656h163.195313c7.511718 0 13.601562-6.089843 13.601562-13.601562v-40.796875h12.429688c14.296874.238281 26.472656-10.339844 28.242187-24.527344 1.472656-14.953125-9.457031-28.269531-24.40625-29.742187-.886719-.085938-1.777344-.128906-2.667969-.128906h40.800782c15.023437 0 27.203124-12.183594 27.203124-27.207032 0-.890625-.042968-1.78125-.132812-2.664062-1.765625-14.191406-13.945312-24.769532-28.242188-24.53125zm0 0" fill="#f4f4e6"/><path d="m197.292969 374h-12.03125l18.832031-54.398438h-27.199219l-18.832031 54.398438h-35.566406c-7.511719 0-13.601563 6.089844-13.601563 13.601562v13.597657h74.800781v-13.597657c0-7.511718 6.085938-13.601562 13.597657-13.601562zm0 0" fill="#d3843d"/><path d="m260.0625 374 18.832031-54.398438h-27.203125l-18.828125 54.398438h-35.570312c-7.511719 0-13.597657 6.089844-13.597657 13.601562v13.597657h108.796876v-13.597657c0-7.511718-6.089844-13.601562-13.597657-13.601562zm0 0" fill="#d3843d"/><path d="m319.691406 217.601562h-13.597656c-3.757812 0-6.800781-3.042968-6.800781-6.796874 0-3.757813 3.042969-6.800782 6.800781-6.800782h13.597656c3.753906 0 6.800782 3.042969 6.800782 6.800782 0 3.753906-3.046876 6.796874-6.800782 6.796874zm0 0" fill="#aabece"/><path d="m47.695312 88.40625-40.796874 20.398438 40.796874 20.398437zm0 0" fill="#fdbd40"/><path d="m88.496094 47.605469c11.382812 0 22.242187 4.769531 29.941406 13.152343 1.332031.289063 2.691406.4375 4.058594.449219 11.265625.050781 20.441406-9.039062 20.496094-20.304687.050781-11.265625-9.039063-20.441406-20.304688-20.496094-5.160156-.023438-10.140625 1.910156-13.933594 5.410156-.710937-11.1875-10.359375-19.683594-21.550781-18.96875-10.195313.648438-18.316406 8.773438-18.96875 18.96875-8.292969-7.605468-21.179687-7.042968-28.78125 1.25-7.605469 8.292969-7.042969 21.179688 1.25 28.785156 3.761719 3.449219 8.6875 5.359376 13.792969 5.355469 1.363281-.011719 2.722656-.160156 4.054687-.449219 7.703125-8.382812 18.5625-13.152343 29.945313-13.152343zm0 0" fill="#e1462b"/><path d="m47.695312 129.203125v54.402344h13.601563c7.511719 0 13.597656-6.089844 13.597656-13.601563 0-2.941406-.953125-5.804687-2.71875-8.160156zm0 0" fill="#e0792d"/><path d="m47.695312 129.203125v54.402344h-13.597656c-7.511718 0-13.601562-6.089844-13.601562-13.601563 0-2.941406.957031-5.804687 2.722656-8.160156zm0 0" fill="#e1462b"/><path d="m224.492188 285.601562h-67.996094c-3.757813 0-6.800782-3.042968-6.800782-6.800781 0-3.753906 3.042969-6.796875 6.800782-6.796875h67.996094c26.277343-.03125 47.570312-21.324218 47.601562-47.601562v-34h-142.796875c-3.757813 0-6.800781-3.042969-6.800781-6.796875 0-3.757813 3.042968-6.800781 6.800781-6.800781h149.597656c3.753907 0 6.796875 3.042968 6.796875 6.800781v40.796875c-.039062 33.785156-27.414062 61.160156-61.199218 61.199218zm0 0" fill="#aabece"/><path d="m68.097656 81.605469h13.597656v13.597656h-13.597656zm0 0" fill="#5a6470"/><path d="m3.855469 102.722656c-3.359375 1.679688-4.722657 5.765625-3.039063 9.125.65625 1.316406 1.722656 2.382813 3.039063 3.039063l33.511719 16.757812-19.59375 26.117188c-6.757813 9.015625-4.929688 21.804687 4.085937 28.5625 3.53125 2.648437 7.824219 4.078125 12.234375 4.078125h6.800781v47.601562c.054688 48.796875 39.601563 88.34375 88.398438 88.398438h38.050781l-14.121094 40.796875h-30.730468c-11.261719.011719-20.386719 9.140625-20.398438 20.402343v13.597657c0 3.753906 3.042969 6.800781 6.796875 6.800781h183.597656c3.757813 0 6.800781-3.046875 6.800781-6.800781v-13.597657c-.011718-11.261718-9.140624-20.390624-20.398437-20.402343h-9.28125l14.121094-40.796875h8.757812c11.261719-.011719 20.386719-9.140625 20.398438-20.402344v-34h5.632812c17.78125.1875 32.859375-13.027344 35.011719-30.679688.804688-8.457031-1.5625-16.910156-6.644531-23.71875h13.601562c18.777344 0 34-15.226562 34-34.003906 0-1.105468-.054687-2.210937-.160156-3.3125-2.148437-17.652344-17.226563-30.867187-35.011719-30.683594h-223.222656v-61.195312c0-7.597656-1.832031-15.082031-5.339844-21.820312 14.28125-4.515626 22.195313-19.753907 17.679688-34.039063-3.578125-11.304687-14.082032-18.972656-25.9375-18.941406-3.28125 0-6.539063.605469-9.601563 1.78125-6.441406-13.476563-22.585937-19.175781-36.0625-12.738281-5.574219 2.667968-10.066406 7.160156-12.734375 12.738281-3.0625-1.175781-6.320312-1.78125-9.601562-1.78125-14.980469-.042969-27.15625 12.0625-27.199219 27.042969-.035156 11.855468 7.636719 22.359374 18.941406 25.9375-2.832031 5.445312-4.570312 11.394531-5.125 17.507812zm50.640625 46.878906 12.238281 16.320313c2.253906 3.003906 1.648437 7.265625-1.355469 9.519531-1.179687.882813-2.609375 1.363282-4.085937 1.359375h-6.796875zm-13.601563-50.195312v18.792969l-18.792969-9.394531zm-12.882812 73.640625c-1.179688-2.300781-.929688-5.074219.640625-7.125l12.242187-16.316406v27.199219h-6.796875c-2.585937.027343-4.953125-1.4375-6.085937-3.757813zm87.683593 214.554687c.003907-3.753906 3.046876-6.796874 6.800782-6.800781h35.566406c2.898438 0 5.480469-1.835937 6.425781-4.578125l17.246094-49.820312h12.808594l-15.703125 45.375c-.675782 1.945312-.429688 4.097656.667968 5.84375-.136718.238281-.1875.527344-.316406.773437-.5.988281-.917968 2.015625-1.25 3.074219-.148437.457031-.3125.894531-.425781 1.363281-.394531 1.558594-.605469 3.160157-.621094 4.769531v6.800782h-61.199219zm126.449219-61.199218-14.121093 40.796875h-33.210938l14.121094-40.796875zm12.382813 51.542968c1.273437 1.792969 3.335937 2.855469 5.535156 2.855469h18.832031c3.75.003907 6.792969 3.046875 6.796875 6.800781v6.796876h-95.199218v-6.796876c.007812-3.753906 3.046874-6.796874 6.800781-6.800781h35.570312c2.898438 0 5.476563-1.835937 6.425781-4.578125l17.242188-49.820312h12.8125l-15.707031 45.375c-.71875 2.078125-.386719 4.375.890625 6.167968zm104.796875-214.742187c10.789062-.230469 20.03125 7.679687 21.46875 18.375 1.117187 11.210937-7.066407 21.207031-18.277344 22.324219-.671875.066406-1.347656.101562-2.023437.101562h-54.398438c-3.757812 0-6.800781 3.042969-6.800781 6.800782 0 3.753906 3.042969 6.796874 6.800781 6.796874h13.597656c11.269532.003907 20.40625 9.140626 20.402344 20.410157 0 .671875-.03125 1.34375-.097656 2.015625-1.4375 10.695312-10.683594 18.605468-21.472656 18.375h-12.433594c-3.753906 0-6.796875 3.042968-6.796875 6.800781v40.796875c-.007813 3.753906-3.046875 6.796875-6.800781 6.800781h-163.195313c-41.292969-.046875-74.753906-33.507812-74.800781-74.800781v-47.597656h6.800781c11.265625 0 20.398437-9.132813 20.398437-20.402344 0-4.414062-1.433593-8.707031-4.078124-12.238281l-23.121094-30.824219v-38.53125c.011718-8.703125 3.382812-17.066406 9.40625-23.347656 1.148437-1.175782 2.382812-2.265625 3.6875-3.261719.53125-.417969 1.003906-.902344 1.5625-1.289063 1.179687-.777343 2.410156-1.480468 3.683594-2.101562.773437-.40625 1.488281-.902344 2.296874-1.246094 1.175782-.453125 2.371094-.835937 3.589844-1.152344.964844-.292968 1.882813-.691406 2.882813-.898437 4.542969-.941406 9.234375-.941406 13.78125 0 .996093.207031 1.917969.605469 2.878906.898437 1.21875.316407 2.417969.699219 3.59375 1.152344.804687.34375 1.523437.839844 2.296875 1.246094 1.273438.621094 2.503906 1.324219 3.683594 2.101562.558594.386719 1.03125.871094 1.5625 1.289063 1.304687.996094 2.535156 2.085937 3.6875 3.261719 6.023437 6.28125 9.394531 14.644531 9.40625 23.347656v67.996094c0 3.757812 3.042968 6.800781 6.800781 6.800781zm-318.429688-122.398437c-.039062-7.472657 5.988281-13.5625 13.460938-13.597657 3.445312-.019531 6.765625 1.277344 9.285156 3.621094 2.769531 2.539063 7.070313 2.351563 9.605469-.417969 1.042968-1.136718 1.667968-2.59375 1.773437-4.128906.457031-7.445312 6.863281-13.109375 14.304688-12.648438 6.804687.417969 12.230469 5.84375 12.648437 12.648438.253906 3.746094 3.5 6.574219 7.25 6.316406 1.535156-.101562 2.992188-.726562 4.128906-1.769531 5.523438-5.066406 14.109376-4.695313 19.171876.828125 5.066406 5.523438 4.695312 14.109375-.828126 19.171875-2.707031 2.488281-6.308593 3.765625-9.980468 3.546875l-.117188-.101562c-1.066406-1.039063-2.179687-2.023438-3.339844-2.960938l-.054687-.039062c-5.96875-4.800782-13.011719-8.078126-20.527344-9.5625-.113281-.023438-.230469-.03125-.347656-.050782-1.367187-.261718-2.75-.480468-4.160156-.617187-1.546875-.15625-3.105469-.238281-4.671875-.238281s-3.125.078124-4.675782.238281c-1.40625.136719-2.789062.359375-4.160156.617187-.113281.019532-.230468.027344-.34375.050782-7.515625 1.484374-14.558594 4.761718-20.527344 9.5625l-.054687.039062c-1.160156.933594-2.277344 1.921875-3.34375 2.960938l-.113281.101562c-7.359375.5625-13.78125-4.945312-14.34375-12.300781-.035156-.421875-.046875-.84375-.039063-1.269531zm0 0"/><path d="m122.496094 183.601562c0 3.757813 3.042968 6.800782 6.796875 6.800782h142.800781v34c-.03125 26.277344-21.324219 47.570312-47.601562 47.597656h-67.996094c-3.757813 0-6.800782 3.046875-6.800782 6.800781 0 3.753907 3.042969 6.800781 6.800782 6.800781h67.996094c33.785156-.039062 61.160156-27.417968 61.199218-61.199218v-40.800782c0-3.753906-3.042968-6.800781-6.796875-6.800781h-149.597656c-3.757813.003907-6.800781 3.046875-6.800781 6.800781zm0 0"/><path d="m68.097656 81.605469h13.597656v13.597656h-13.597656zm0 0"/></svg>