<?xml version="1.0" encoding="iso-8859-1"?>
<!-- Generator: Adobe Illustrator 19.0.0, SVG Export Plug-In . SVG Version: 6.00 Build 0)  -->
<svg version="1.1" id="Capa_1" xmlns="http://www.w3.org/2000/svg" xmlns:xlink="http://www.w3.org/1999/xlink" x="0px" y="0px"
	 viewBox="0 0 511.999 511.999" style="enable-background:new 0 0 511.999 511.999;" xml:space="preserve">
<g>
	<g>
		<path d="M481.217,318.451c-6.083-8.364-9.298-18.252-9.298-28.594v-44.72c0-3.92-0.285-7.774-0.828-11.546
			c16.469-10.938,40.908-33.413,40.908-70.445c0-32.793-21.948-72.116-52.188-93.501c-4.323-3.056-10.014-2.629-13.838,1.042
			c-3.795,3.642-4.455,9.265-1.603,13.676c19.705,30.482,27.489,55.827,23.137,75.329c-2.519,11.288-9.01,20.547-19.763,28.205
			c-12.483-12.088-28.984-20.154-47.583-22.014l-165.198-15.69c-6.976-0.662-13.352-4.284-17.494-9.937l-5.917-8.077
			c2.338-12.021,0.194-25.186-4.409-34.746c-8.957-18.602-38.357-53.345-68.883-53.345h-21.508c-14.218,0-27.75,5.366-38.104,15.11
			L59.81,76.927L11.404,90.494c-7.735,2.124-12.627,9.962-11.137,17.843l3.181,16.831c1.547,8.184,7.333,14.772,14.821,17.627
			l0.573,3.149c1.567,8.625,7.69,15.601,15.98,18.206c11.914,3.743,33.576,9.256,57.798,9.256c0.628,0,1.263-0.016,1.894-0.023
			c0.021,6.987,0.988,20.56,6.414,40.277c-7.434,2.761-12.755,9.906-12.755,18.289v8.017c0,10.766,8.759,19.524,19.524,19.524
			c3.325,0,6.456-0.84,9.2-2.312c6.392,14.119,14.062,28.775,22.926,43.727c30.141,50.844,35.417,100.009,36.335,114.886
			l-18.864,9.432c-8.024,4.012-13.008,12.077-13.008,21.048v14.14c0,4.143,3.358,7.5,7.5,7.5h49.369
			c12.148,0,22.45-9.483,23.452-21.59l9.829-118.702c13.435,3.267,28.693,4.664,44.29,4.664c34.999,0,71.648-7.008,92.967-15.541
			c28.239,36.774,63.31,50.4,77.207,54.582v43.928l-25.289,10.115c-8.986,3.595-14.792,12.171-14.792,21.849v13.194
			c0,4.143,3.358,7.5,7.5,7.5h50.297c11.575,0,21.582-8.634,23.278-20.084l14.005-94.535c0.288-1.943-0.198-3.922-1.354-5.511
			L481.217,318.451z M482.147,162.959c4.086-18.312,0.21-39.243-11.842-63.529C486.492,118.168,497,142.26,497,163.146
			c0,26.28-14.941,43.872-29.801,54.871c-2.404-6.683-5.668-12.955-9.681-18.676C470.635,189.654,478.914,177.444,482.147,162.959z
			 M112.222,239.967c0,2.495-2.029,4.524-4.524,4.524c-2.495,0-4.524-2.029-4.524-4.524v-8.017c0-2.494,2.03-4.523,4.524-4.523
			c2.494,0,4.524,2.029,4.524,4.523V239.967z M475.059,445.631c-0.615,4.15-4.244,7.281-8.44,7.281h-42.797v-5.694
			c0-3.509,2.105-6.618,5.363-7.921l30.002-12.001c2.848-1.14,4.715-3.897,4.715-6.964v-54.777c0-3.563-2.506-6.634-5.997-7.348
			c-0.553-0.113-55.724-12.011-87.851-71.546c-1.967-3.646-6.516-5.005-10.162-3.039c-3.646,1.968-5.006,6.517-3.039,10.162
			c1.935,3.586,3.947,7.004,6.016,10.282c-29.91,10.891-88.563,18.71-127.178,8.403l0.725-8.755
			c0.342-4.128-2.728-7.752-6.855-8.094c-4.143-0.356-7.751,2.728-8.094,6.855l-11.809,142.609
			c-0.363,4.389-4.098,7.827-8.503,7.827h-41.869v-6.64c0-3.253,1.807-6.177,4.716-7.632l23.202-11.601
			c2.543-1.271,4.148-3.871,4.146-6.715c-0.002-2.532-0.496-62.749-38.624-127.066c-10.317-17.405-18.956-34.353-25.739-50.433
			c0.138-0.936,0.233-1.885,0.233-2.858v-8.017c0-3.955-1.19-7.633-3.219-10.711c14.912-3.566,43.699-12.325,69.544-31.042
			c3.355-2.43,4.105-7.118,1.675-10.474c-2.429-3.354-7.118-4.104-10.473-1.675c-27.491,19.909-59.568,27.72-69.849,29.826
			c-4.9-18.435-5.442-30.42-5.386-35.436c9.664-1.293,17.084-5.164,17.409-5.336c3.651-1.933,5.04-6.447,3.121-10.105
			c-1.918-3.66-6.446-5.071-10.113-3.165c-0.059,0.031-6.001,3.084-13.336,3.859c-27.534,2.911-53.97-3.669-67.278-7.851
			c-2.57-0.807-4.557-2.817-5.409-5.38c22.281,0.276,49.287-0.339,65.456-4.069c4.036-0.931,6.553-4.958,5.622-8.994
			c-0.932-4.036-4.961-6.553-8.995-5.621c-12.959,2.991-37.675,4.255-69.598,3.554c-4.076-0.09-7.451-2.946-8.207-6.947
			l-3.181-16.832c-0.05-0.262,0.113-0.521,0.408-0.603L65.63,90.87c1.166-0.326,2.235-0.931,3.116-1.76l20.179-18.992
			c7.561-7.115,17.442-11.034,27.824-11.034h21.508c22.485,0,47.617,28.755,55.368,44.853c4.806,9.982,5.827,25.899-0.786,35.256
			c-4.357,6.164-11.663,8.731-21.706,7.642c-16.239-1.768-20.31-14.969-25.083-36.501c-2.904-13.099-5.646-25.47-13.965-33.186
			c-3.036-2.816-7.782-2.638-10.599,0.398c-2.816,3.037-2.638,7.782,0.399,10.6c4.887,4.533,7.138,14.686,9.521,25.434
			c4.456,20.097,10.001,45.108,38.104,48.167c1.875,0.204,3.872,0.33,5.942,0.33c9.841,0,21.333-2.87,29.305-13.791l0.609,0.831
			c1.302,1.777,2.745,3.425,4.302,4.942c-1.103,1.452-2.248,2.883-3.432,4.281c-2.675,3.162-2.281,7.895,0.881,10.57
			c1.409,1.192,3.129,1.774,4.841,1.774c2.13,0,4.246-0.902,5.729-2.655c1.576-1.862,3.087-3.779,4.538-5.724
			c3.581,1.476,7.388,2.444,11.318,2.818l165.161,15.687c33.187,3.318,58.212,30.972,58.212,64.325v44.72
			c0,13.533,4.207,26.472,12.167,37.416l19.529,26.853L475.059,445.631z"/>
	</g>
</g>
<g>
	<g>
		<path d="M95.755,84.167h-0.081c-4.142,0-7.459,3.357-7.459,7.5s3.398,7.5,7.54,7.5s7.5-3.357,7.5-7.5S99.897,84.167,95.755,84.167
			z"/>
	</g>
</g>
<g>
</g>
<g>
</g>
<g>
</g>
<g>
</g>
<g>
</g>
<g>
</g>
<g>
</g>
<g>
</g>
<g>
</g>
<g>
</g>
<g>
</g>
<g>
</g>
<g>
</g>
<g>
</g>
<g>
</g>
</svg>
