<?xml version="1.0" encoding="iso-8859-1"?>
<!-- Generator: Adobe Illustrator 19.0.0, SVG Export Plug-In . SVG Version: 6.00 Build 0)  -->
<svg version="1.1" id="Capa_1" xmlns="http://www.w3.org/2000/svg" xmlns:xlink="http://www.w3.org/1999/xlink" x="0px" y="0px"
	 viewBox="0 0 511.999 511.999" style="enable-background:new 0 0 511.999 511.999;" xml:space="preserve">
<path style="fill:#F58C46;" d="M455.481,75.769c-3.011-2.129-6.815,1.425-4.813,4.522c16.611,25.697,47.819,86.529-6.29,119.595
	l17.034,31.564c15.827-9.847,43.087-33.131,43.087-68.305C504.5,134.028,485.21,96.791,455.481,75.769z"/>
<path style="fill:#EBA34B;" d="M475.152,322.861c-6.975-9.591-10.733-21.146-10.733-33.005v-44.719
	c0-37.065-28.086-68.1-64.968-71.789l-165.197-15.69c-9.115-0.866-17.425-5.586-22.835-12.972l-7.275-9.932l-0.841-0.568
	c3.209-10.938,1.635-24.046-2.917-33.501c-7.591-15.767-34.82-49.099-62.125-49.099h-21.508c-12.252,0-24.042,4.676-32.964,13.073
	L63.609,83.651L13.39,97.726c-4.026,1.106-6.529,5.116-5.754,9.219l3.034,14.258c1.31,6.934,6.974,12.061,13.86,12.884l1.69,10.517
	c1.15,5.922,5.428,10.7,11.187,12.497c11.832,3.691,33.416,9.027,57.242,8.689c3.882-0.055,7.16,2.793,7.354,6.67
	c0.545,10.922,2.458,27.843,8.451,47.034l8.701,24.079c6.382,15.429,15.295,33.561,27.119,53.508
	c37.521,63.292,37.576,123.249,37.576,123.249l-23.202,11.601c-5.432,2.716-8.863,8.267-8.863,14.34v6.124
	c0,4.427,3.589,8.016,8.016,8.016h41.353c8.341,0,15.289-6.396,15.977-14.709l10.39-125.474
	c42.779,11.823,112.931,3.527,146.75-12.835c34.437,48.259,82.129,58.159,82.129,58.159v54.777l-30.003,12.001
	c-6.087,2.435-10.078,8.33-10.078,14.885v5.179c0,4.427,3.589,8.016,8.016,8.016h42.281c7.947,0,14.695-5.822,15.859-13.683
	l13.527-91.296c0.308-2.077-0.212-4.192-1.447-5.89L475.152,322.861z"/>
<path style="fill:#EBC9A0;" d="M110.455,219.495l8.701,24.079c6.382,15.429,15.295,33.561,27.119,53.508
	c6.207,10.47,11.304,20.815,15.63,30.846c-6.301-26.397-16.14-56.554-21.642-74.435c-12.024-39.079-8.68-82.173-9.519-100.203
	c-1.002-21.543-27.054-20.876-34.403-18.871l-70.57,7.398l0.448,2.785c1.15,5.922,5.428,10.7,11.187,12.497
	c11.831,3.691,33.416,9.027,57.242,8.689c3.882-0.055,7.16,2.793,7.354,6.67C102.55,183.382,104.462,200.303,110.455,219.495z"/>
<path style="fill:#F58C46;" d="M200.385,100.685c-5.122-10.639-19.186-29.276-36.181-40.273
	c-12.079-7.816-28.302-2.328-33.209,11.196l-0.077,0.212c-2.189,6.031-1.414,12.573,1.385,18.346
	c10.021,20.672,5.802,60.62,38.023,64.128C206.504,158.232,210.155,120.976,200.385,100.685z"/>
<path style="fill:#EBC9A0;" d="M374.274,307.394c-4.228-6.691-7.517-13.355-9.847-18.639c-2.614-5.926-8.99-9.23-15.317-7.844
	c-37.78,8.279-77.526,2.658-100.233-2.137c-9.985-2.108-19.451,5.164-19.985,15.356l-1.368,26.099
	C270.304,332.052,340.456,323.756,374.274,307.394z"/>
<path style="fill:#F58C46;" d="M107.197,251.824L107.197,251.824c-6.641,0-12.024-5.383-12.024-12.024v-8.016
	c0-6.641,5.383-12.024,12.024-12.024l0,0c6.641,0,12.024,5.383,12.024,12.024v8.016C119.222,246.44,113.838,251.824,107.197,251.824
	z"/>
<path d="M481.217,318.451c-6.083-8.364-9.298-18.252-9.298-28.594v-44.72c0-3.92-0.285-7.774-0.828-11.546
	c16.469-10.938,40.908-33.413,40.908-70.446c0-32.793-21.948-72.116-52.188-93.501c-4.323-3.056-10.014-2.629-13.838,1.042
	c-3.795,3.642-4.455,9.265-1.603,13.676c19.705,30.482,27.489,55.827,23.137,75.329c-2.519,11.288-9.01,20.547-19.763,28.205
	c-12.483-12.088-28.984-20.154-47.583-22.014l-165.198-15.69c-6.976-0.662-13.352-4.284-17.494-9.937l-5.917-8.077
	c2.338-12.021,0.194-25.186-4.409-34.746c-8.957-18.602-38.357-53.345-68.883-53.345h-21.508c-14.218,0-27.75,5.366-38.104,15.11
	L59.81,76.927L11.404,90.494c-7.735,2.124-12.627,9.962-11.137,17.843l3.181,16.831c1.547,8.184,7.333,14.772,14.821,17.627
	l0.573,3.149c1.567,8.625,7.69,15.601,15.98,18.206c11.914,3.743,33.576,9.256,57.798,9.256c0.628,0,1.263-0.016,1.894-0.023
	c0.021,6.987,0.988,20.56,6.414,40.277c-7.434,2.761-12.755,9.906-12.755,18.289v8.017c0,10.766,8.759,19.524,19.524,19.524
	c3.325,0,6.456-0.84,9.2-2.312c6.392,14.119,14.062,28.775,22.926,43.727c30.141,50.844,35.417,100.009,36.335,114.886
	l-18.864,9.432c-8.024,4.012-13.008,12.077-13.008,21.048v14.14c0,4.143,3.358,7.5,7.5,7.5h49.369
	c12.148,0,22.45-9.483,23.452-21.59l9.829-118.702c13.435,3.267,28.693,4.664,44.29,4.664c34.999,0,71.648-7.008,92.967-15.541
	c28.239,36.774,63.309,50.4,77.207,54.582v43.928l-25.289,10.115c-8.986,3.595-14.792,12.171-14.792,21.849v13.194
	c0,4.143,3.358,7.5,7.5,7.5h50.297c11.575,0,21.582-8.634,23.278-20.084l14.005-94.535c0.288-1.943-0.198-3.922-1.354-5.511
	L481.217,318.451z M482.147,162.959c4.086-18.312,0.21-39.243-11.842-63.529C486.492,118.168,497,142.26,497,163.146
	c0,26.28-14.941,43.872-29.801,54.871c-2.404-6.683-5.668-12.955-9.681-18.676C470.636,189.654,478.914,177.444,482.147,162.959z
	 M107.698,244.491c-2.495,0-4.524-2.029-4.524-4.524v-8.017c0-2.494,2.03-4.523,4.524-4.523s4.524,2.029,4.524,4.523v8.017
	C112.222,242.462,110.193,244.491,107.698,244.491z M475.059,445.631c-0.615,4.15-4.244,7.281-8.44,7.281h-42.797v-5.694
	c0-3.509,2.105-6.618,5.363-7.921l30.002-12.001c2.848-1.14,4.715-3.897,4.715-6.964v-54.777c0-3.563-2.506-6.634-5.997-7.348
	c-0.553-0.113-55.724-12.011-87.851-71.546c-1.967-3.646-6.516-5.005-10.162-3.039c-3.646,1.968-5.006,6.517-3.039,10.162
	c1.935,3.586,3.947,7.004,6.016,10.282c-29.91,10.891-88.563,18.71-127.178,8.403l0.725-8.755c0.342-4.128-2.728-7.752-6.855-8.094
	c-4.143-0.356-7.751,2.728-8.094,6.855l-11.809,142.609c-0.363,4.389-4.098,7.827-8.503,7.827h-41.869v-6.64
	c0-3.253,1.807-6.177,4.716-7.632l23.202-11.601c2.543-1.271,4.148-3.871,4.146-6.715c-0.002-2.532-0.496-62.749-38.624-127.066
	c-10.317-17.405-18.956-34.353-25.739-50.433c0.138-0.936,0.233-1.885,0.233-2.858v-8.017c0-3.955-1.19-7.633-3.219-10.711
	c14.912-3.566,43.699-12.325,69.545-31.042c3.355-2.43,4.105-7.118,1.675-10.474c-2.429-3.354-7.118-4.104-10.473-1.675
	c-27.491,19.909-59.568,27.72-69.849,29.826c-4.9-18.435-5.442-30.42-5.386-35.436c9.664-1.293,17.084-5.164,17.409-5.336
	c3.651-1.933,5.04-6.447,3.121-10.105c-1.918-3.66-6.446-5.071-10.113-3.165c-0.059,0.031-6.001,3.084-13.336,3.859
	c-27.534,2.911-53.97-3.669-67.278-7.851c-2.57-0.807-4.557-2.817-5.409-5.38c22.281,0.276,49.287-0.339,65.456-4.069
	c4.036-0.931,6.553-4.958,5.622-8.994c-0.932-4.036-4.961-6.553-8.995-5.621c-12.959,2.991-37.675,4.255-69.598,3.554
	c-4.076-0.09-7.451-2.946-8.207-6.947l-3.181-16.832c-0.05-0.262,0.113-0.521,0.408-0.603L65.63,90.87
	c1.166-0.326,2.235-0.931,3.116-1.76l20.179-18.992c7.561-7.115,17.442-11.034,27.824-11.034h21.508
	c22.485,0,47.617,28.755,55.368,44.853c4.806,9.982,5.827,25.899-0.786,35.256c-4.357,6.164-11.663,8.731-21.706,7.642
	c-16.239-1.768-20.31-14.969-25.083-36.501c-2.904-13.099-5.646-25.47-13.965-33.186c-3.036-2.816-7.782-2.638-10.599,0.398
	c-2.816,3.037-2.638,7.782,0.399,10.6c4.887,4.533,7.138,14.686,9.521,25.434c4.456,20.097,10.001,45.108,38.104,48.167
	c1.875,0.204,3.872,0.33,5.942,0.33c9.841,0,21.333-2.87,29.305-13.791l0.609,0.831c1.302,1.777,2.745,3.425,4.302,4.942
	c-1.103,1.452-2.248,2.883-3.432,4.281c-2.675,3.162-2.281,7.895,0.881,10.57c1.409,1.192,3.129,1.774,4.841,1.774
	c2.13,0,4.246-0.902,5.729-2.655c1.576-1.862,3.087-3.779,4.538-5.724c3.581,1.476,7.388,2.444,11.318,2.818l165.161,15.687
	c33.187,3.318,58.212,30.972,58.212,64.325v44.72c0,13.533,4.207,26.472,12.167,37.416l19.529,26.853L475.059,445.631z"/>
<path d="M95.755,84.167h-0.081c-4.142,0-7.459,3.357-7.459,7.5s3.398,7.5,7.54,7.5c4.142,0,7.5-3.357,7.5-7.5
	S99.897,84.167,95.755,84.167z"/>
<g>
</g>
<g>
</g>
<g>
</g>
<g>
</g>
<g>
</g>
<g>
</g>
<g>
</g>
<g>
</g>
<g>
</g>
<g>
</g>
<g>
</g>
<g>
</g>
<g>
</g>
<g>
</g>
<g>
</g>
</svg>
