<?xml version="1.0" encoding="iso-8859-1"?>
<!-- Generator: Adobe Illustrator 19.0.0, SVG Export Plug-In . SVG Version: 6.00 Build 0)  -->
<svg version="1.1" id="Capa_1" xmlns="http://www.w3.org/2000/svg" xmlns:xlink="http://www.w3.org/1999/xlink" x="0px" y="0px"
	 viewBox="0 0 512.001 512.001" style="enable-background:new 0 0 512.001 512.001;" xml:space="preserve">
<path style="fill:#4B3F4E;" d="M110.819,36.957c-37.375-8.96-67.72,10.714-77.926,20.78c-2.605,2.57-1.947,6.914,1.257,8.68
	l19.975,11.011l184.966,77.599C223.789,144.24,184.07,54.516,110.819,36.957z"/>
<path style="fill:#AF6E5A;" d="M432.252,253.029c14.718-30.772,13.38-69.571-8.028-88.302c-21.782-19.06-55.882-24.29-112.384-9.366
	c-70.909,18.731-68.709,2.551-86.964-16.055c-28.145-28.686-70.277-57.923-102.8-68.687c-9.896-3.275-20.387-4.178-30.736-2.939
	l-15.197,1.82c-6.098,0.73-11.957,2.796-17.159,6.049c-4.882,3.052-8.529,7.747-10.42,13.185l-3.746,10.771
	c-0.92,2.645-2.291,5.111-4.053,7.288L9.305,145.676c-2.589,3.193-2.348,7.826,0.559,10.733l7.47,5.81
	c4.698,4.697,11.803,6.017,17.874,3.319l57.968-26.272c2.369-1.073,5.162-0.073,6.31,2.26l58.833,119.532l16.055,188.645
	l-15.137,21.19c-2.065,2.89,0.002,6.905,3.554,6.905h19.526c2.304,0,4.212-1.791,4.358-4.09l5.376-84.662
	c1.594-25.112,4.214-50.149,7.851-75.047l3.523-24.117c66.039,23.034,121.266-14.124,140.884-30.108
	c11.397,27.443,35.188,74.276,75.907,109.654l13.045,79.02l-13.245,22.789c-1.692,2.911,0.408,6.562,3.776,6.562h20.153
	c2.412,0,4.367-1.955,4.367-4.367V358.165c0-5.163-2.612-9.849-6.699-13.004C416.539,325.805,419.071,280.59,432.252,253.029z"/>
<g>
	<path style="fill:#965A50;" d="M59.371,50.142l9.57,27.35c0.989,2.827,3.933,4.472,6.859,3.832l24.871-5.438
		c3.378-0.739,4.846-4.713,2.733-7.45c-5.701-7.386-17.841-19.568-38.479-24.418C61.323,43.173,58.149,46.651,59.371,50.142z"/>
	<path style="fill:#965A50;" d="M99.483,141.524l58.833,119.532c-3.789-43.427-23.069-121.139-27.967-140.412
		c-0.711-2.797-2.663-5.088-5.305-6.248l0,0c-4.64-2.037-10.042-0.011-12.176,4.585c-4.073,8.772-11.907,16.265-19.695,20.283
		C95.485,138.072,98.335,139.191,99.483,141.524z"/>
	<path style="fill:#965A50;" d="M205.66,276.76l-2.24,13.121c66.039,23.034,121.266-14.124,140.884-30.108l-0.253-0.849
		c-2.055-6.899-9.659-10.423-16.301-7.646c-45.857,19.174-83.037,16.507-103.033,12.47
		C215.799,261.948,207.19,267.793,205.66,276.76z"/>
</g>
<path style="fill:#BE826E;" d="M29.612,120.578L9.305,145.676c-2.589,3.193-2.348,7.826,0.559,10.733l7.47,5.81
	c4.698,4.697,11.803,6.017,17.874,3.319l28.72-13.017C55.572,135.23,41.042,125.658,29.612,120.578z"/>
<path style="fill:#4B3F4E;" d="M493.461,291.661c9.533-80.275-7.693-130.614-61.209-118.907l6.021,5.351
	c43.483,2.676,33.448,82.951,27.428,121.081c-5.339,33.802,16.632,50.172,38.799,50.172
	C504.499,349.359,488.163,336.292,493.461,291.661z"/>
<path d="M73.023,98.025h-0.081c-4.142,0-7.46,3.357-7.46,7.5s3.398,7.5,7.541,7.5c4.143,0,7.5-3.357,7.5-7.5
	S77.165,98.025,73.023,98.025z"/>
<path d="M509.184,343.501c-0.131-0.104-12.876-12.203-8.275-50.955c6.954-58.562-0.12-97.871-21.025-116.837
	c-11.591-10.516-26.815-14.221-45.291-11.049c-1.685-2.007-3.489-3.88-5.429-5.578c-25.435-22.256-63.324-25.743-119.239-10.973
	c-26.733,7.062-44.054,9.406-54.511,7.37c-3.362-0.654-5.924-1.738-8.173-3.249c-3.194-2.631-9.926-11.701-17.045-21.296
	C204.415,96.183,161.264,38.019,107.478,28.24c-53.551-9.737-84.751,29.878-86.054,31.569c-1.331,1.729-1.843,3.95-1.403,6.087
	c0.44,2.137,1.788,3.976,3.693,5.038l19.625,10.944c-0.639,1.257-1.217,2.547-1.682,3.884l-3.933,11.308
	c-0.634,1.822-1.57,3.504-2.79,5.007L3.48,140.951c-5.024,6.195-4.56,15.12,1.08,20.76c0.22,0.221,0.454,0.427,0.699,0.617
	l7.138,5.552c4.451,4.258,10.369,6.517,16.352,6.517c3.222,0,6.464-0.655,9.504-2.007c0.056-0.024,0.112-0.051,0.167-0.076
	l55.045-26.096L150.962,263.1l15.701,184.488l-18.465,25.85c-1.633,2.286-1.851,5.293-0.566,7.791
	c1.286,2.498,3.859,4.068,6.669,4.068h32.11c3.958,0,7.234-3.075,7.485-7.024l5.635-88.744c1.575-24.805,4.195-49.853,7.788-74.447
	l2.016-13.802c11.692,3.547,23.766,5.334,36.051,5.334c19.75,0,40.022-4.567,60.027-13.643
	c16.419-7.448,28.856-16.165,35.695-21.486c12.567,28.083,35.45,69.164,72.14,101.805l12.17,73.718l-15.704,27.02
	c-1.348,2.319-1.354,5.184-0.016,7.509c1.338,2.326,3.817,3.76,6.5,3.76h32.109c4.142,0,7.5-3.357,7.5-7.5v-128.44
	c0-2.841-1.605-5.438-4.146-6.708c-15.383-7.692-20.076-24.379-21.304-37.024c-1.556-16.023,1.763-34.937,8.662-49.361
	c7.885-16.487,11.524-35.115,10.247-52.454c-0.411-5.584-1.347-10.909-2.75-15.913c2.462,1.285,4.632,3.095,6.533,5.463
	c12.071,15.038,13.835,50.249,5.245,104.654c-3.437,21.768,3.552,35.361,10.021,42.932c8.64,10.111,21.829,15.91,36.187,15.91
	c3.186,0,6.023-2.012,7.078-5.018C512.631,348.835,511.671,345.491,509.184,343.501z M52.466,52.771L57.8,67.366l-3.525,2.291
	c-0.311,0.202-0.601,0.43-0.904,0.643l-13.913-7.76C42.633,59.624,47.002,56.091,52.466,52.771z M179.372,470.298h-10.498
	l11.522-16.131L179.372,470.298z M425.486,249.792c-8.131,17.002-11.892,38.416-10.059,57.284
	c2.062,21.224,11.015,37.595,25.379,46.655v116.567H429.23l10.509-18.082c0.875-1.507,1.199-3.271,0.916-4.99l-13.045-79.02
	c-0.285-1.724-1.162-3.294-2.481-4.439c-58.743-51.04-81.782-128.12-82.006-128.889c-1.158-3.977-5.318-6.26-9.298-5.104
	c-3.977,1.158-6.262,5.32-5.104,9.298c0.268,0.922,2.266,7.641,6.338,18.021c-4.632,3.855-17.823,14.112-36.27,22.413
	c-30.131,13.56-59.486,15.829-87.262,6.758l3.377-23.119c0.599-4.099-2.239-7.906-6.337-8.505c-4.097-0.601-7.907,2.239-8.505,6.337
	l-7.587,51.938c-3.651,24.996-6.314,50.454-7.915,75.664l-3.361,52.936l-15.412-181.092c-0.079-0.931-0.332-1.837-0.743-2.675
	l-59.37-120.689c1.316-1.864,2.372-3.92,3.105-6.121l5.789-17.364c1.31-3.93-0.814-8.177-4.743-9.487
	c-3.929-1.313-8.177,0.813-9.487,4.743l-5.789,17.365c-0.758,2.275-2.45,4.139-4.641,5.112c-0.056,0.024-0.111,0.05-0.167,0.076
	l-57.654,27.332c-3.197,1.384-6.987,0.667-9.453-1.8c-0.22-0.22-0.453-0.426-0.699-0.616l-6.88-5.351
	c-0.079-0.178-0.056-0.391,0.078-0.555l31.455-38.876c2.311-2.849,4.095-6.052,5.302-9.521l3.933-11.308
	c1.203-3.459,3.556-6.462,6.625-8.457l0.657-0.427c1.188,2.858,3.954,4.629,6.908,4.629c0.855,0,1.725-0.147,2.574-0.458
	c3.891-1.422,5.892-5.729,4.47-9.619l-8.602-23.531c17.365,5.933,27.761,18.193,27.874,18.329c1.346,1.636,3.358,2.628,5.474,2.729
	c0.019,0.001,1.918,0.097,5.386,0.719c4.077,0.736,7.975-1.98,8.707-6.057c0.732-4.077-1.979-7.976-6.057-8.707
	c-1.628-0.293-3.009-0.495-4.123-0.635c-3.656-3.791-11.732-11.229-23.5-16.927c6.892-0.848,14.433-0.762,22.576,0.719
	c27,4.91,51.779,24.55,72.642,46.662c-12.082-8.061-24.196-14.745-36.29-19.959c-3.803-1.641-8.216,0.112-9.857,3.917
	c-1.641,3.803,0.113,8.216,3.917,9.856c34.935,15.067,65.133,41.536,84.316,61.087c2.575,2.624,4.753,5.251,6.86,7.791
	c14.489,17.466,25.688,26.557,87.373,10.262c50.656-13.38,84.189-10.915,105.53,7.76
	C437.045,185.909,439.71,220.053,425.486,249.792z M479.717,331.203c-6.338-7.417-8.624-18.085-6.608-30.847
	c6.002-38.012,11.665-91.433-8.364-116.384c-0.475-0.592-0.96-1.163-1.458-1.716c2.339,1.219,4.509,2.738,6.518,4.562
	c16.623,15.081,22.378,52.001,16.209,103.958c-2.669,22.479-0.154,37.769,3.442,47.804
	C485.679,336.787,482.36,334.297,479.717,331.203z"/>
<g>
</g>
<g>
</g>
<g>
</g>
<g>
</g>
<g>
</g>
<g>
</g>
<g>
</g>
<g>
</g>
<g>
</g>
<g>
</g>
<g>
</g>
<g>
</g>
<g>
</g>
<g>
</g>
<g>
</g>
</svg>
