<svg height="480pt" viewBox="-8 0 480 480.00003" width="480pt" xmlns="http://www.w3.org/2000/svg"><path d="m4.421875 120.84375c-2.710937 1.355469-4.421875 4.125-4.421875 7.15625s1.710938 5.800781 4.421875 7.15625l39.425781 19.714844-23.050781 30.726562c-5.453125 7.273438-6.328125 17.003906-2.261719 25.132813 4.066406 8.132812 12.375 13.269531 21.464844 13.269531h8v56c.0625 57.410156 46.589844 103.9375 104 104h44.765625l-16.613281 48h-36.152344c-13.25.015625-23.984375 10.75-24 24v16c0 4.417969 3.582031 8 8 8h216c4.417969 0 8-3.582031 8-8v-16c-.015625-13.25-10.75-23.984375-24-24h-10.917969l16.613281-48h10.304688c13.25-.015625 23.984375-10.75 24-24v-40h6.625c20.921875.21875 38.660156-15.328125 41.191406-36.097656.945313-9.949219-1.839844-19.894532-7.816406-27.902344h16c11.289062 0 22.050781-4.769531 29.632812-13.132812 7.582032-8.359376 11.28125-19.535157 10.179688-30.769532-2.527344-20.769531-20.265625-36.316406-41.1875-36.097656h-262.625v-72c0-8.9375-2.15625-17.742188-6.285156-25.667969 15.027344-4.753906 24.332031-19.765625 21.90625-35.335937-2.429688-15.574219-15.859375-27.042969-31.621094-26.996094-3.863281 0-7.691406.710938-11.296875 2.09375-5.285156-11.054688-16.449219-18.09375-28.703125-18.09375s-23.417969 7.039062-28.703125 18.09375c-3.605469-1.382812-7.433594-2.09375-11.296875-2.09375-15.761719-.046875-29.191406 11.421875-31.621094 26.996094-2.425781 15.570312 6.878906 30.582031 21.90625 35.335937-3.328125 6.40625-5.378906 13.402344-6.027344 20.59375zm59.578125 55.15625 14.398438 19.199219c1.820312 2.421875 2.113281 5.667969.757812 8.378906s-4.125 4.421875-7.15625 4.421875h-8zm-16-59.054688v22.109376l-22.113281-11.054688zm-15.15625 86.632813c-1.390625-2.703125-1.09375-5.964844.753906-8.378906l14.402344-19.199219v32h-8c-3.039062.035156-5.828125-1.6875-7.15625-4.421875zm103.15625 252.421875c.003906-4.414062 3.585938-7.996094 8-8h41.847656c3.410156 0 6.445313-2.160156 7.558594-5.382812l20.289062-58.617188h15.070313l-18.476563 53.382812c-.792968 2.292969-.503906 4.820313.785157 6.875-.160157.285157-.222657.621094-.371094.910157-.589844 1.164062-1.082031 2.375-1.472656 3.617187-.171875.539063-.367188 1.050782-.5 1.605469-.464844 1.832031-.710938 3.71875-.730469 5.609375v8h-72zm148.765625-72-16.613281 48h-39.070313l16.613281-48zm14.566406 60.640625c1.5 2.109375 3.929688 3.359375 6.515625 3.359375h22.152344c4.414062.003906 7.996094 3.585938 8 8v8h-112v-8c.003906-4.414062 3.585938-7.996094 8-8h41.847656c3.410156 0 6.445313-2.160156 7.558594-5.382812l20.289062-58.617188h15.070313l-18.476563 53.382812c-.847656 2.445313-.460937 5.148438 1.042969 7.257813zm123.292969-252.640625c12.695312-.273438 23.570312 9.03125 25.257812 21.617188.671876 6.746093-1.539062 13.460937-6.089843 18.488281-4.550781 5.027343-11.011719 7.894531-17.792969 7.894531h-64c-4.417969 0-8 3.582031-8 8s3.582031 8 8 8h16c6.78125 0 13.242188 2.867188 17.792969 7.894531 4.550781 5.027344 6.765625 11.742188 6.09375 18.488281-1.691407 12.585938-12.566407 21.890626-25.261719 21.617188h-14.625c-4.417969 0-8 3.582031-8 8v48c-.003906 4.414062-3.585938 7.996094-8 8h-192c-48.578125-.054688-87.945312-39.421875-88-88v-56h8c9.089844 0 17.402344-5.136719 21.464844-13.269531 4.066406-8.128907 3.1875-17.859375-2.265625-25.132813l-27.199219-36.261718v-45.335938c.015625-10.238281 3.980469-20.078125 11.066406-27.46875 1.355469-1.378906 2.804688-2.660156 4.339844-3.835938.625-.492187 1.183594-1.0625 1.835938-1.515624 1.390624-.914063 2.839843-1.742188 4.335937-2.472657.910156-.476562 1.753906-1.0625 2.703125-1.46875 1.378906-.53125 2.789062-.980469 4.222656-1.351562 1.136719-.34375 2.214844-.8125 3.390625-1.054688 5.347657-1.109375 10.863281-1.109375 16.210938 0 1.175781.242188 2.253906.710938 3.390625 1.054688 1.433594.371093 2.84375.820312 4.222656 1.351562.949219.410157 1.792969.992188 2.703125 1.46875 1.496094.730469 2.945313 1.558594 4.335937 2.472657.652344.453124 1.210938 1.023437 1.835938 1.515624 1.535156 1.175782 2.984375 2.457032 4.339844 3.835938 7.085937 7.390625 11.050781 17.230469 11.066406 27.46875v80c0 4.417969 3.582031 8 8 8zm-374.625-144c-.03125-6.347656 3.710938-12.109375 9.523438-14.660156 5.8125-2.550782 12.585937-1.402344 17.234374 2.921875 2.265626 2.078125 5.519532 2.671875 8.375 1.53125 2.855469-1.140625 4.800782-3.816407 5.011719-6.882813.515625-8.378906 7.460938-14.910156 15.855469-14.910156s15.339844 6.53125 15.855469 14.910156c.210937 3.066406 2.15625 5.742188 5.011719 6.882813 2.855468 1.140625 6.109374.546875 8.375-1.53125 5.347656-4.90625 13.335937-5.585938 19.4375-1.65625 6.101562 3.929687 8.785156 11.484375 6.53125 18.382812-2.257813 6.898438-8.882813 11.410157-16.128907 10.976563l-.136719-.121094c-1.257812-1.21875-2.566406-2.378906-3.933593-3.480469l-.0625-.046875c-7.023438-5.644531-15.308594-9.503906-24.148438-11.25-.132812-.023437-.273437-.035156-.40625-.058594-1.613281-.304687-3.238281-.566406-4.894531-.730468-1.820312-.179688-3.65625-.273438-5.5-.277344-1.84375 0-3.675781.09375-5.5.277344-1.65625.164062-3.28125.425781-4.894531.726562-.132813.027344-.273438.035156-.40625.0625-8.839844 1.746094-17.125 5.605469-24.148438 11.25l-.066406.046875c-1.363281 1.097657-2.675781 2.257813-3.929687 3.480469l-.136719.121094c-4.414063.339844-8.769531-1.203125-11.988281-4.242188-3.222657-3.039062-5.011719-7.296875-4.929688-11.722656zm0 0"/><path d="m144 216c0 4.417969 3.582031 8 8 8h168v40c-.035156 30.914062-25.085938 55.964844-56 56h-80c-4.417969 0-8 3.582031-8 8s3.582031 8 8 8h80c39.746094-.046875 71.953125-32.253906 72-72v-48c0-4.417969-3.582031-8-8-8h-176c-4.417969 0-8 3.582031-8 8zm0 0"/><path d="m80 96h16v16h-16zm0 0"/></svg>