<?xml version="1.0" encoding="iso-8859-1"?>
<!-- Generator: Adobe Illustrator 19.0.0, SVG Export Plug-In . SVG Version: 6.00 Build 0)  -->
<svg version="1.1" id="Capa_1" xmlns="http://www.w3.org/2000/svg" xmlns:xlink="http://www.w3.org/1999/xlink" x="0px" y="0px"
	 viewBox="0 0 512 512" style="enable-background:new 0 0 512 512;" xml:space="preserve">
<g>
	<g>
		<g>
			<path d="M458.667,192C422.479,192,384,221.917,384,277.333c0,28.125,10.75,48.208,21.146,67.646
				c11.063,20.688,21.521,40.229,21.521,71.021c0,50.25-24.417,74.667-74.667,74.667h-11.91
				c13.889-13.568,22.577-32.432,22.577-53.333v-42.667c0-54.813-31.688-82.646-54.813-102.958
				c-4.479-3.938-8.688-7.625-12.313-11.25c-5.313-5.313-12.438-11.688-20.208-18.625C256.125,244.708,224,216.042,224,202.667V96
				c0-30.75-23.146-45.396-33.938-50.542C185.583,32.396,171.188,0,138.667,0C132.771,0,128,4.771,128,10.667
				c0,16.521-7.333,32-10.667,32c-15.396,0-24.604,13.813-32,24.938c-2.729,4.083-5.313,7.958-7.542,10.188
				c-2.625,2.625-6.479,5.271-10.458,8.083c-11.563,8.188-24.667,17.479-24.667,31.458c0,38.854,45.792,53.333,74.667,53.333
				c6.396,0,8.354,0.479,8.604,0.479c0,0,0,0,0.021,0c2.063,3,2.063,18.625,2.042,36.708v5.479c0,5.208-1.875,8.563-5.792,15.083
				c-6.563,10.938-15.542,25.896-15.542,59.583c0,22.479,16.354,56.667,21.333,66.563V448h-10.667c-17.646,0-32,14.354-32,32v21.333
				C85.333,507.229,90.104,512,96,512h256c61.917,0,96-34.083,96-96c0-36.125-12.771-60.021-24.042-81.083
				c-10-18.688-18.625-34.813-18.625-57.583c0-46.958,31.896-64,53.333-64c5.896,0,10.667-4.771,10.667-10.667
				C469.333,196.771,464.563,192,458.667,192z M288,490.667h-96V480c0-5.875,4.792-10.667,10.667-10.667H224
				c4.313,0,8.208-2.604,9.854-6.583c1.646-3.979,0.729-8.583-2.313-11.625l-21.333-21.333c-21.979-22-20.354-41.708-15.104-54.375
				c8.042-19.438,29.646-34.083,50.229-34.083c5.896,0,10.667-4.771,10.667-10.667c0-5.896-4.771-10.667-10.667-10.667
				c-29.188,0-58.604,19.875-69.938,47.25c-10.771,26.021-3.583,54.313,19.729,77.625l3.396,3.396
				c-15.688,2.042-27.854,15.5-27.854,31.729v10.667h-64V480c0-5.875,4.792-10.667,10.667-10.667h21.333
				c5.896,0,10.667-4.771,10.667-10.667V352c0-1.708-0.417-3.417-1.208-4.938C142.521,336.333,128,304.771,128,288
				c0-27.771,6.646-38.833,12.5-48.604c4.333-7.229,8.833-14.708,8.833-26.063v-5.458c0.021-23.938,0.021-35.958-3.438-44.396
				c-5.813-14.146-19.5-14.146-28.563-14.146c-16.708,0-53.313-8.063-53.333-31.979c0.417-3.271,10.708-10.563,15.667-14.083
				c5.063-3.583,9.875-7.063,13.208-10.396c3.729-3.729,6.875-8.458,10.208-13.458C107.167,73.271,113.354,64,117.333,64
				c19.146,0,28.042-22.542,30.917-40.542c16.146,7.458,22.667,32.188,22.75,32.479c0.875,3.479,3.521,6.333,6.896,7.5
				c1.021,0.354,24.771,8.854,24.771,32.563v106.667c0,21.25,25.333,45.542,58.458,75.083c7.438,6.646,14.25,12.708,19.333,17.792
				c3.917,3.917,8.458,7.917,13.313,12.188c22.292,19.583,47.563,41.792,47.563,86.938v42.667
				C341.333,466.75,317.417,490.667,288,490.667z"/>
			<path d="M128,85.333h-10.667c-5.896,0-10.667,4.771-10.667,10.667s4.771,10.667,10.667,10.667H128
				c5.896,0,10.667-4.771,10.667-10.667S133.896,85.333,128,85.333z"/>
		</g>
	</g>
</g>
<g>
</g>
<g>
</g>
<g>
</g>
<g>
</g>
<g>
</g>
<g>
</g>
<g>
</g>
<g>
</g>
<g>
</g>
<g>
</g>
<g>
</g>
<g>
</g>
<g>
</g>
<g>
</g>
<g>
</g>
</svg>
