<svg xmlns="http://www.w3.org/2000/svg" height="512pt" version="1.1" viewBox="-27 0 512 512" width="512pt">
<g id="surface1">
<path d="M 265.816406 189.398438 C 269.957031 189.398438 273.316406 186.042969 273.316406 181.898438 L 273.316406 167.253906 C 273.316406 163.109375 269.957031 159.753906 265.816406 159.753906 C 261.675781 159.753906 258.316406 163.109375 258.316406 167.253906 L 258.316406 181.898438 C 258.316406 186.042969 261.675781 189.398438 265.816406 189.398438 Z M 265.816406 189.398438 " style=" stroke:none;fill-rule:nonzero;fill:rgb(0%,0%,0%);fill-opacity:1;" />
<path d="M 255.839844 210.929688 L 275.792969 210.929688 C 279.933594 210.929688 283.292969 207.574219 283.292969 203.429688 C 283.292969 199.289062 279.933594 195.929688 275.792969 195.929688 L 255.839844 195.929688 C 251.699219 195.929688 248.339844 199.289062 248.339844 203.429688 C 248.339844 207.574219 251.699219 210.929688 255.839844 210.929688 Z M 255.839844 210.929688 " style=" stroke:none;fill-rule:nonzero;fill:rgb(0%,0%,0%);fill-opacity:1;" />
<path d="M 115.144531 189.398438 C 119.285156 189.398438 122.644531 186.042969 122.644531 181.898438 L 122.644531 167.253906 C 122.644531 163.109375 119.285156 159.753906 115.144531 159.753906 C 111 159.753906 107.644531 163.109375 107.644531 167.253906 L 107.644531 181.898438 C 107.644531 186.042969 111 189.398438 115.144531 189.398438 Z M 115.144531 189.398438 " style=" stroke:none;fill-rule:nonzero;fill:rgb(0%,0%,0%);fill-opacity:1;" />
<path d="M 105.167969 210.929688 L 125.117188 210.929688 C 129.261719 210.929688 132.617188 207.574219 132.617188 203.429688 C 132.617188 199.289062 129.261719 195.929688 125.117188 195.929688 L 105.167969 195.929688 C 101.023438 195.929688 97.667969 199.289062 97.667969 203.429688 C 97.667969 207.574219 101.023438 210.929688 105.167969 210.929688 Z M 105.167969 210.929688 " style=" stroke:none;fill-rule:nonzero;fill:rgb(0%,0%,0%);fill-opacity:1;" />
<path d="M 190.480469 210.105469 C 197.894531 210.105469 204.867188 206.996094 209.601562 201.578125 C 212.328125 198.460938 212.011719 193.722656 208.890625 190.996094 C 205.773438 188.269531 201.035156 188.589844 198.308594 191.707031 C 196.421875 193.867188 193.566406 195.105469 190.480469 195.105469 C 187.394531 195.105469 184.539062 193.867188 182.652344 191.707031 C 179.925781 188.589844 175.1875 188.269531 172.070312 190.996094 C 168.949219 193.722656 168.632812 198.460938 171.359375 201.578125 C 176.09375 206.996094 183.0625 210.105469 190.480469 210.105469 Z M 190.480469 210.105469 " style=" stroke:none;fill-rule:nonzero;fill:rgb(0%,0%,0%);fill-opacity:1;" />
<path d="M 17.722656 197.855469 C 17.722656 244.171875 36.054688 277.464844 72.210938 296.816406 C 81.785156 301.9375 92.535156 306.113281 104.6875 309.386719 C 102.542969 322.332031 96.105469 335.222656 89.335938 348.761719 C 79.480469 368.476562 68.308594 390.820312 69.074219 417.410156 C 69.195312 421.550781 72.652344 424.8125 76.789062 424.6875 C 80.929688 424.570312 84.1875 421.117188 84.070312 416.976562 C 83.410156 394.15625 93.242188 374.492188 102.753906 355.472656 C 109.917969 341.144531 116.746094 327.480469 119.347656 312.761719 C 131.816406 315.191406 145.601562 316.839844 160.894531 317.734375 C 180.574219 318.882812 200.398438 318.855469 220.074219 317.734375 C 235.367188 316.839844 249.148438 315.191406 261.613281 312.761719 C 264.214844 327.480469 271.050781 341.144531 278.214844 355.472656 C 287.101562 373.238281 296.289062 391.605469 296.90625 412.519531 C 297.015625 416.292969 296.828125 420.15625 296.367188 423.929688 C 293.894531 444.097656 283.34375 465.03125 264.347656 487.558594 C 259.285156 493.558594 251.808594 497 243.824219 497 L 238.539062 497 C 258.277344 454.542969 252.5625 402.40625 252.28125 400.011719 C 251.804688 395.898438 248.082031 392.949219 243.972656 393.425781 C 239.855469 393.902344 236.90625 397.621094 237.382812 401.738281 C 237.449219 402.308594 243.535156 457.636719 221.730469 497 L 197.980469 497 L 197.980469 400.875 C 197.980469 396.734375 194.621094 393.375 190.480469 393.375 C 186.339844 393.375 182.980469 396.734375 182.980469 400.875 L 182.980469 497 L 159.230469 497 C 137.519531 457.785156 143.496094 402.480469 143.578125 401.734375 C 144.054688 397.621094 141.105469 393.902344 136.988281 393.425781 C 132.875 392.949219 129.152344 395.898438 128.679688 400.011719 C 128.402344 402.40625 122.683594 454.542969 142.421875 497 L 137.136719 497 C 129.15625 497 121.675781 493.558594 116.617188 487.558594 C 104.042969 472.652344 95.023438 458.171875 89.800781 444.515625 C 88.324219 440.644531 83.988281 438.707031 80.117188 440.1875 C 76.25 441.664062 74.3125 446 75.789062 449.871094 C 81.695312 465.316406 91.300781 480.808594 105.148438 497.230469 C 113.066406 506.617188 124.726562 512 137.136719 512 L 243.824219 512 C 256.238281 512 267.898438 506.617188 275.8125 497.230469 C 284.542969 486.878906 291.660156 476.757812 297.203125 466.800781 C 322.609375 462.035156 341.960938 451.414062 356.234375 434.378906 C 373.421875 413.867188 379.515625 388.421875 385.410156 363.8125 C 388.855469 349.417969 392.113281 335.820312 397.378906 323.136719 C 398.964844 319.308594 397.152344 314.921875 393.324219 313.332031 C 389.496094 311.746094 385.109375 313.558594 383.523438 317.386719 C 377.804688 331.171875 374.253906 345.988281 370.820312 360.316406 C 365.332031 383.238281 359.652344 406.941406 344.738281 424.742188 C 334.859375 436.535156 321.886719 444.699219 305.332031 449.496094 C 308.003906 442.453125 309.832031 435.480469 310.875 428.511719 C 311.332031 425.464844 311.65625 422.394531 311.8125 419.3125 C 333.292969 406.933594 338.902344 383.523438 345.890625 354.34375 C 350.582031 334.753906 355.902344 312.546875 367.238281 292.085938 C 380.117188 268.847656 398.863281 251.378906 424.558594 238.683594 C 430.828125 235.589844 438.640625 238.25 441.726562 244.5 C 444.824219 250.773438 442.167969 258.578125 435.910156 261.671875 C 420.789062 269.140625 408.851562 278.449219 399.410156 290.132812 C 396.804688 293.351562 397.304688 298.074219 400.527344 300.679688 C 403.75 303.28125 408.472656 302.78125 411.074219 299.5625 C 419.125 289.601562 429.421875 281.609375 442.554688 275.117188 C 456.050781 268.449219 461.84375 251.644531 455.28125 238.074219 C 455.246094 238.003906 455.210938 237.929688 455.175781 237.855469 C 448.511719 224.367188 431.691406 218.574219 418.132812 225.128906 C 418.058594 225.164062 417.988281 225.199219 417.914062 225.234375 C 389.390625 239.328125 368.523438 258.816406 354.117188 284.8125 C 341.789062 307.0625 336.21875 330.324219 331.300781 350.851562 C 325.542969 374.890625 321.59375 391.339844 310.933594 401.398438 C 308.066406 381.679688 299.417969 364.332031 291.628906 348.761719 C 284.855469 335.222656 278.417969 322.332031 276.273438 309.386719 C 288.425781 306.113281 299.175781 301.9375 308.746094 296.816406 C 344.902344 277.464844 363.238281 244.167969 363.238281 197.851562 C 363.238281 178.15625 361.089844 159.535156 356.890625 142.175781 C 386.90625 95.070312 382.464844 46.464844 377.023438 21.398438 C 374.597656 10.21875 365.25 1.902344 353.773438 0.699219 C 349.332031 0.234375 344.867188 0 340.507812 0 C 301.542969 0 276.496094 18.292969 267.074219 26.664062 C 243.527344 15.007812 217.167969 8.675781 190.480469 8.675781 C 163.789062 8.675781 137.429688 15.007812 113.886719 26.664062 C 104.460938 18.292969 79.410156 0 40.449219 0 C 36.089844 0 31.628906 0.234375 27.1875 0.699219 C 15.707031 1.902344 6.363281 10.21875 3.9375 21.398438 C -1.507812 46.464844 -5.945312 95.070312 24.070312 142.175781 C 19.871094 159.535156 17.722656 178.15625 17.722656 197.855469 Z M 46.082031 45.71875 C 58.226562 46.679688 67.710938 50.484375 74.160156 54.054688 C 73.027344 55.109375 71.917969 56.1875 70.816406 57.277344 C 62.429688 65.582031 54.933594 74.777344 48.484375 84.664062 C 45.085938 70.128906 45.027344 56.539062 46.082031 45.71875 Z M 332.476562 84.664062 C 328.34375 78.324219 323.800781 72.300781 318.867188 66.601562 C 315.207031 62.375 311.332031 58.332031 307.265625 54.496094 C 307.109375 54.351562 306.957031 54.199219 306.800781 54.054688 C 313.25 50.488281 322.734375 46.679688 334.875 45.722656 C 335.929688 56.535156 335.871094 70.132812 332.476562 84.664062 Z M 340.511719 15 C 344.351562 15 348.285156 15.207031 352.210938 15.617188 C 357.234375 16.144531 361.316406 19.746094 362.363281 24.582031 C 366.859375 45.269531 370.636719 83.5625 351 122.304688 C 350.683594 121.414062 348.734375 116.550781 348.207031 114.964844 C 346.511719 110.761719 344.679688 106.65625 342.703125 102.648438 C 352.105469 77.210938 351.3125 52.988281 348.890625 36.878906 C 348.34375 33.234375 345.230469 30.53125 341.546875 30.496094 L 340.71875 30.492188 C 319.433594 30.492188 303.945312 37.75 294.71875 43.8125 C 290.386719 40.480469 285.882812 37.355469 281.207031 34.453125 C 291.171875 26.828125 311.335938 15 340.511719 15 Z M 290.480469 59.652344 C 330.757812 93.300781 348.238281 146.628906 348.238281 197.851562 C 348.238281 238.777344 333.007812 266.820312 301.671875 283.589844 C 273.113281 298.871094 239.191406 302.265625 207.320312 303.296875 C 207.0625 303.304688 173.898438 303.304688 173.640625 303.296875 C 141.757812 302.257812 107.882812 298.890625 79.289062 283.589844 C 47.953125 266.820312 32.722656 238.777344 32.722656 197.851562 C 32.722656 150.378906 46.964844 102.40625 81.144531 68.207031 C 109.742188 39.59375 150.152344 23.675781 190.480469 23.675781 C 227.085938 23.675781 262.996094 36.691406 290.480469 59.652344 Z M 18.59375 24.582031 C 19.644531 19.746094 23.726562 16.144531 28.75 15.617188 C 32.675781 15.207031 36.609375 15 40.449219 15 C 69.417969 15 89.679688 26.855469 99.710938 34.476562 C 95.050781 37.375 90.5625 40.492188 86.242188 43.8125 C 77.015625 37.75 61.523438 30.492188 40.242188 30.492188 L 39.414062 30.496094 C 35.730469 30.53125 32.617188 33.234375 32.070312 36.878906 C 29.648438 52.988281 28.855469 77.210938 38.257812 102.648438 C 36.273438 106.671875 34.433594 110.796875 32.734375 115.015625 C 32.125 116.523438 30.289062 121.382812 29.960938 122.308594 C 10.324219 83.5625 14.101562 45.269531 18.59375 24.582031 Z M 18.59375 24.582031 " style=" stroke:none;fill-rule:nonzero;fill:rgb(0%,0%,0%);fill-opacity:1;" />
</g>
</svg>