<?xml version="1.0" encoding="iso-8859-1"?>
<!-- Generator: Adobe Illustrator 19.0.0, SVG Export Plug-In . SVG Version: 6.00 Build 0)  -->
<svg version="1.1" id="Capa_1" xmlns="http://www.w3.org/2000/svg" xmlns:xlink="http://www.w3.org/1999/xlink" x="0px" y="0px"
	 viewBox="0 0 512.001 512.001" style="enable-background:new 0 0 512.001 512.001;" xml:space="preserve">
<g>
	<g>
		<circle cx="183.376" cy="270.749" r="16.198"/>
	</g>
</g>
<g>
	<g>
		<circle cx="328.625" cy="270.749" r="16.198"/>
	</g>
</g>
<g>
	<g>
		<rect x="217.308" y="411.614" width="30.029" height="34.253"/>
	</g>
</g>
<g>
	<g>
		<rect x="264.664" y="411.614" width="30.029" height="34.253"/>
	</g>
</g>
<g>
	<g>
		<path d="M427.036,9.957L422.85,0l-10.77,0.803c-2.107,0.157-51.901,4.312-77.8,44.994c-10.081,15.834-11.405,36.286-10.107,53.117
			c-1.666-0.663-3.347-1.308-5.064-1.922c-29.872-10.67-57.797-10.198-63.108-9.997c-5.307-0.202-33.237-0.675-63.108,9.997
			c-1.717,0.614-3.398,1.259-5.064,1.922c1.298-16.831-0.027-37.283-10.107-53.117C151.821,5.115,102.028,0.96,99.921,0.803
			L89.151,0l-4.186,9.957c-0.924,2.196-22.365,54.264-0.639,95.108c10.615,19.956,31.427,33.071,45.929,40.228
			c-8.442,13.481-14.138,29.066-16.908,46.574c-11.516,72.762,13.875,134.708,30.677,175.698
			c6.59,16.079,12.283,29.966,13.001,37.932c0.236,2.625,0.436,5.481,0.647,8.505c1.235,17.707,2.926,41.957,15.89,61.949
			c15.512,23.921,43.248,36.049,82.438,36.049c39.191,0,66.926-12.129,82.438-36.049c12.964-19.992,14.655-44.242,15.89-61.949
			c0.211-3.024,0.41-5.881,0.648-8.505c0.719-7.967,6.41-21.853,13.001-37.932c16.802-40.99,42.193-102.936,30.677-175.698
			c-2.771-17.508-8.466-33.093-16.908-46.574c14.502-7.158,35.314-20.273,45.929-40.229C449.401,64.22,427.96,12.154,427.036,9.957z
			 M243.979,117.204c3.348-0.196,6.08-0.247,8.003-0.247c1.987,0,3.112,0.054,3.158,0.057l0.861,0.049l0.861-0.049
			c0.162-0.011,10.79-0.564,25.562,1.67c5.933,10.945,4.454,46.139-8.375,69.024c-7.746,13.817-10.517,26.742-11.092,37.178
			c-2.693-1.056-5.52-2.34-8.362-3.9c-17.198-9.438-26.639-24.538-28.057-44.881C223.741,136.016,238.127,121.43,243.979,117.204z
			 M110.837,90.962c-10.126-19.034-5.81-43.853-1.9-58.06c12.356,3.22,31.964,10.976,43.453,29.021
			c9.51,14.938,5.248,43.11,1.99,56.245c-1.355,1.094-2.686,2.208-3.98,3.354C138.951,116.767,118.806,105.942,110.837,90.962z
			 M325.067,402.798c-0.264,2.93-0.474,5.934-0.696,9.114c-2.401,34.443-4.885,70.059-68.371,70.059
			c-63.486,0-65.97-35.615-68.371-70.059c-0.222-3.18-0.431-6.184-0.696-9.113c-0.101-1.123-0.257-2.276-0.438-3.443
			c5.964-3.205,19.84-9.775,39.206-13.426c33.093-6.238,66.623-1.578,99.741,13.832C325.29,400.79,325.158,401.806,325.067,402.798z
			 M340.191,356.176c-2.116,5.161-4.104,10.021-5.912,14.623c-47.438-20.961-88.755-19.402-115.713-14.072
			c-18.069,3.571-32.166,9.24-41.058,13.524c-1.75-4.439-3.667-9.119-5.697-14.075c-16.461-40.158-39.004-95.157-28.804-159.615
			c5.504-34.783,25.413-58.67,59.174-70.997c0.216-0.079,0.431-0.152,0.647-0.23c-5.562,14.789-7.667,32.478-6.245,52.861
			c2.711,38.851,25.188,59.031,43.567,69.116c18.813,10.324,36.589,12.04,38.554,12.202l24.34,2.409l-8.972-22.438
			c-0.507-1.631-4.917-17.315,6.171-37.091c11.429-20.385,17.632-50.435,14.989-74.704c30.482,12.842,48.557,35.983,53.763,68.873
			C379.195,261.019,356.652,316.017,340.191,356.176z M401.163,90.962c-7.974,14.988-28.135,25.816-39.563,30.561
			c-1.295-1.147-2.628-2.263-3.984-3.358c-3.137-12.716-7.5-41.33,1.993-56.242c11.514-18.085,31.07-25.823,43.414-29.029
			C406.914,47.14,411.225,72.048,401.163,90.962z"/>
	</g>
</g>
<g>
</g>
<g>
</g>
<g>
</g>
<g>
</g>
<g>
</g>
<g>
</g>
<g>
</g>
<g>
</g>
<g>
</g>
<g>
</g>
<g>
</g>
<g>
</g>
<g>
</g>
<g>
</g>
<g>
</g>
</svg>
