<?xml version="1.0" encoding="iso-8859-1"?>
<!-- Generator: Adobe Illustrator 19.0.0, SVG Export Plug-In . SVG Version: 6.00 Build 0)  -->
<svg version="1.1" id="Capa_1" xmlns="http://www.w3.org/2000/svg" xmlns:xlink="http://www.w3.org/1999/xlink" x="0px" y="0px"
	 viewBox="0 0 512 512" style="enable-background:new 0 0 512 512;" xml:space="preserve">
<path style="fill:#A0785B;" d="M363.11,126.76c-9.71-9.36-19.94-17.7-29.38-24.79h-0.01l-168.74,10.06
	c-5.54,4.57-11.15,9.49-16.59,14.73c-22.77,21.94-42.64,49.42-42.64,79.24c0,43.22,27.25,145.5,57.01,215.29h185.98
	C378.5,351.5,405.75,249.22,405.75,206C405.75,176.17,385.87,148.69,363.11,126.76z"/>
<path style="fill:#787880;" d="M326.66,81.69c5.1,7.01,7.18,13.86,7.06,20.28c-0.53,30.82-51.56,51.61-61.34,31.97
	c-4.19,6.32-6.63,13.91-6.63,22.06c0,17.79,11.62,32.88,27.69,38.07c-5.65,1.26-11.58,1.93-17.69,1.93
	c-35.8,0-65.32-23.03-69.49-52.75l-20.31,46.11c-16.93-7.98-29.09-44.42-20.97-77.33c3.07-12.44,9.03-24.37,18.73-34.07
	c0.66-0.67,1.34-1.32,2.04-1.96c15.28-14.05,57.47-21.43,57.47-21.43c23.14-3.87,22.5-29.26,33.3-44.57c7.23,11.46,29.23,26,9.23,66
	c-3.31,6.61,18.51-18.69,36.46,0.34C323.9,78.13,325.38,79.91,326.66,81.69z"/>
<g>
	<path style="fill:#73553F;" d="M183.71,77.96c-9.7,9.7-15.66,21.63-18.73,34.07c-5.54,4.57-11.15,9.49-16.59,14.73
		c-25.36-13.42-42.64-40.07-42.64-70.76V10C143.73,10,175.53,42.46,183.71,77.96z"/>
	<path style="fill:#73553F;" d="M333.73,101.97h-0.01c0.12-6.42-1.96-13.27-7.06-20.28l0.42-0.3C333.95,44.18,366.56,10,405.75,10
		v46c0,30.69-17.28,57.34-42.64,70.76C353.4,117.4,343.17,109.06,333.73,101.97z"/>
</g>
<g>
	<path style="fill:#787880;" d="M348.74,421.29c4.52,5.99,7.01,12.9,7.01,20.71c0,33.14-44.77,60-100,60s-100-26.86-100-60
		c0-7.81,2.49-14.72,7.01-20.71c14.68-19.44,50.78-29.29,92.99-29.29S334.06,401.85,348.74,421.29z"/>
	<path style="fill:#787880;" d="M365.75,256c0-11.05-8.95-20-20-20s-20,8.95-20,20c0,11.05,8.95,20,20,20S365.75,267.05,365.75,256z
		"/>
	<path style="fill:#787880;" d="M185.75,256c0-11.05-8.95-20-20-20s-20,8.95-20,20c0,11.05,8.95,20,20,20S185.75,267.05,185.75,256z
		"/>
</g>
<g>
	<path style="fill:#020202;" d="M206,432c-5.523,0-10,4.478-10,10s4.477,10,10,10c5.514,0,10,4.486,10,10c0,5.522,4.477,10,10,10
		s10-4.478,10-10C236,445.458,222.542,432,206,432z"/>
	<path style="fill:#020202;" d="M306,432c-16.542,0-30,13.458-30,30c0,5.522,4.477,10,10,10s10-4.478,10-10c0-5.514,4.486-10,10-10
		c5.523,0,10-4.478,10-10S311.523,432,306,432z"/>
	<path style="fill:#020202;" d="M316,256c0,16.542,13.458,30,30,30s30-13.458,30-30s-13.458-30-30-30S316,239.458,316,256z M356,256
		c0,5.514-4.486,10-10,10s-10-4.486-10-10s4.486-10,10-10S356,250.486,356,256z"/>
	<path style="fill:#020202;" d="M166,226c-16.542,0-30,13.458-30,30s13.458,30,30,30s30-13.458,30-30S182.542,226,166,226z M166,266
		c-5.514,0-10-4.486-10-10s4.486-10,10-10s10,4.486,10,10S171.514,266,166,266z"/>
	<path style="fill:#020202;" d="M151.731,420.269C147.929,426.919,146,434.204,146,442c0,19.679,12.126,37.792,34.144,51.002
		C200.563,505.253,227.502,512,256,512s55.438-6.747,75.856-18.998C353.874,479.792,366,461.679,366,442
		c0-7.796-1.929-15.079-5.731-21.731C390.191,348.388,416,249.549,416,206c0-25.234-12.376-51.229-36.799-77.399
		C402.17,111.788,416,85.005,416,56V10c0-5.522-4.477-10-10-10c-37.734,0-70.803,27.851-83.968,63.249
		c-5.832-3.45-12.363-4.776-19.302-3.869c5.738-25.611-6.032-40.196-13.673-49.667c-1.518-1.882-2.952-3.659-3.829-5.049
		c-1.783-2.826-4.859-4.574-8.2-4.661c-3.357-0.078-6.503,1.503-8.429,4.232c-4.214,5.974-6.772,12.665-9.248,19.137
		c-4.94,12.919-7.964,19.735-17.604,21.348c-3.858,0.675-33.114,6.053-52.494,16.893C176.455,29.674,145.801,0,106,0
		c-5.523,0-10,4.478-10,10v46c0,29.005,13.83,55.788,36.799,72.601C108.375,154.773,96,180.767,96,206
		C96,249.549,121.809,348.388,151.731,420.269z M256,492c-48.785,0-90-22.897-90-50c0-31.738,57.47-40,90-40
		c32.504,0,90,8.249,90,40C346,469.103,304.785,492,256,492z M345.32,403.958C326.216,389.863,294.809,382,256,382
		s-70.216,7.863-89.32,21.958C139.518,335.906,116,245.009,116,206c0-21.667,12.359-44.95,36.733-69.245
		c0.795,27.624,12.143,53.609,29.204,61.652c5.069,2.389,11.142,0.144,13.416-5.015l10.461-23.752
		C219.499,191.454,246.033,206,276,206c6.726,0,13.41-0.729,19.866-2.169c4.403-0.982,7.603-4.79,7.813-9.296
		c0.209-4.506-2.623-8.595-6.916-9.98C284.344,180.543,276,169.068,276,156c0-2.101,0.216-4.177,0.641-6.199
		c5.999,2.174,13.379,2.43,21.584,0.575c16.576-3.749,33.712-15.553,41.471-31.22c6.056,4.964,11.654,9.917,16.725,14.805
		C382.684,159.267,396,183.504,396,206C396,245.009,372.482,335.906,345.32,403.958z M396,20.849V56
		c0,23.661-11.832,45.427-31.292,58.336c-6.405-5.831-13.435-11.703-21.018-17.542c-0.691-5.698-2.66-11.29-5.872-16.703
		C344.057,52.994,366.336,25.927,396,20.849z M245.12,64.434c21.304-3.563,28.014-21.107,32.912-33.918
		c0.19-0.498,0.379-0.992,0.568-1.484c5.935,8.944,9.361,20.685-1.542,42.491c-3.667,7.323,0.958,12.079,1.922,12.958
		c5.826,5.313,12.336,1.262,14.787-0.264c13.02-8.101,18.166-6.224,25.056,3.356c3.502,4.814,5.234,9.595,5.148,14.225
		c-0.23,13.361-15.78,25.819-30.159,29.071c-6.011,1.359-11.155,0.775-12.231-1.387c-1.593-3.197-4.77-5.303-8.335-5.523
		c-3.558-0.21-6.977,1.479-8.951,4.455C258.869,136.6,256,146.139,256,156c0,10.785,3.414,20.921,9.374,29.217
		c-25.595-3.817-45.85-21.185-48.961-43.356c-0.621-4.426-4.103-7.902-8.53-8.516c-0.462-0.064-0.921-0.096-1.377-0.096
		c-3.918,0-7.534,2.307-9.147,5.97L182.656,172.6c-13.927-21.39-15.844-65.509,10.113-89.238
		C202.301,74.596,229.985,67.092,245.12,64.434z M116,56V20.889c27.466,4.904,49.214,29.351,56.877,54.336
		c-7.574,8.82-13.105,19.272-16.492,31.174c-3.156,2.654-6.19,5.306-9.087,7.941C127.835,101.431,116,79.663,116,56z"/>
</g>
<g>
</g>
<g>
</g>
<g>
</g>
<g>
</g>
<g>
</g>
<g>
</g>
<g>
</g>
<g>
</g>
<g>
</g>
<g>
</g>
<g>
</g>
<g>
</g>
<g>
</g>
<g>
</g>
<g>
</g>
</svg>
