<svg height="511pt" viewBox="-20 0 511 511.99954" width="511pt" xmlns="http://www.w3.org/2000/svg"><path d="m222.980469 286.113281c3.050781-2.804687 3.246093-7.546875.441406-10.597656-2.800781-3.046875-7.546875-3.246094-10.59375-.441406-7.1875 6.613281-20.007813 6.074219-27.023437 1.292969v-7.046876c15.523437-3.816406 28.015624-18.710937 28.015624-30.796874 0-13.460938-15.601562-24.007813-35.515624-24.007813-19.917969 0-35.519532 10.546875-35.519532 24.007813 0 6.730468 3.921875 14.550781 10.484375 20.914062 5.167969 5.011719 11.214844 8.40625 17.535157 9.917969v7.011719c-7.015626 4.78125-19.835938 5.324218-27.023438-1.292969-3.046875-2.800781-7.792969-2.605469-10.597656.441406-2.804688 3.046875-2.605469 7.792969.441406 10.597656 6.078125 5.59375 15.402344 8.839844 24.890625 8.839844 6.902344 0 13.894531-1.71875 19.789063-5.507813 5.890624 3.789063 12.882812 5.507813 19.789062 5.507813 9.488281 0 18.808594-3.246094 24.886719-8.839844zm-65.195313-47.589843c0-3.058594 7.242188-9.007813 20.519532-9.007813 13.277343 0 20.519531 5.949219 20.519531 9.007813 0 4.714843-9.097657 16.726562-20.519531 16.726562-11.417969 0-20.519532-12.011719-20.519532-16.726562zm0 0"/><path d="m247.300781 217.765625c14.519531 0 26.328125-11.8125 26.328125-26.332031 0-4.140625-3.355468-7.5-7.496094-7.5-4.144531 0-7.5 3.359375-7.5 7.5 0 6.25-5.085937 11.332031-11.332031 11.332031-6.25 0-11.332031-5.082031-11.332031-11.332031 0-4.140625-3.355469-7.5-7.5-7.5-4.140625 0-7.5 3.359375-7.5 7.5 0 14.519531 11.8125 26.332031 26.332031 26.332031zm0 0"/><path d="m128.140625 183.933594c-4.140625 0-7.5 3.359375-7.5 7.5 0 6.25-5.082031 11.332031-11.328125 11.332031-6.25 0-11.332031-5.082031-11.332031-11.332031 0-4.140625-3.359375-7.5-7.5-7.5-4.144531 0-7.5 3.359375-7.5 7.5 0 14.519531 11.8125 26.332031 26.332031 26.332031 14.515625 0 26.328125-11.8125 26.328125-26.332031 0-4.140625-3.359375-7.5-7.5-7.5zm0 0"/><path d="m469.648438 305.351562c-1.417969-6.355468-5.226563-11.78125-10.71875-15.269531-5.5-3.496093-12.027344-4.636719-18.382813-3.214843-6.355469 1.417968-11.777344 5.226562-15.269531 10.722656-3.480469 5.472656-4.625 11.96875-3.234375 18.296875.132812.695312 2.550781 13.941406-1.820313 30.515625-6.308594 23.929687-23.449218 42.78125-50.949218 56.035156-10.445313 5.035156-20.253907 10.808594-29.285157 17.238281-3-15.617187-8.269531-30.769531-15.726562-45.003906-12.449219-23.773437-30.421875-44.070313-52.375-59.257813 2.722656-1.953124 5.402343-3.976562 8.03125-6.066406 10.738281-8.53125 20.050781-17.648437 27.851562-27.175781 11.761719 3.207031 23.507813 7.675781 32.984375 13.890625 3.402344 2.234375 8.140625 1.261719 10.386719-2.15625 2.269531-3.464844 1.304687-8.113281-2.160156-10.382812-9.40625-6.171876-20.511719-10.785157-31.753907-14.238282 5.828126-8.929687 10.375-18.136718 13.578126-27.496094 5.394531.722657 10.621093 1.824219 15.492187 3.402344 3.933594 1.277344 8.167969-.878906 9.445313-4.820312 1.277343-3.9375-.878907-8.167969-4.820313-9.445313-5.171875-1.675781-10.644531-2.886719-16.246094-3.722656 1.144531-6.054687 1.726563-12.140625 1.726563-18.230469 0-19.386718-4.417969-37.957031-12.835938-54.847656 6.449219-20.449219 14.144532-53.671875 17.589844-85.011719 4.582031-41.648437.179688-63.273437-13.855469-68.058593-7.707031-2.628907-21.777343-2.601563-54.847656 27.820312-17.347656 15.964844-35.015625 35.691406-47.6875 50.574219-14.8125-3.710938-30.429687-5.632813-46.460937-5.632813s-31.648438 1.921875-46.460938 5.632813c-12.667969-14.882813-30.339844-34.609375-47.6875-50.574219-33.070312-30.421875-47.140625-30.449219-54.847656-27.820312-14.03125 4.785156-18.433594 26.410156-13.855469 68.058593 3.445313 31.339844 11.140625 64.5625 17.59375 85.015625-8.417969 16.886719-12.835937 35.460938-12.835937 54.84375 0 6.09375.574218 12.183594 1.703124 18.230469-5.59375.835937-11.058593 2.046875-16.226562 3.722656-3.941406 1.277344-6.097656 5.507813-4.820312 9.449219 1.277343 3.9375 5.507812 6.09375 9.445312 4.820312 4.851562-1.574218 10.058594-2.671874 15.433594-3.394531 3.175781 9.378907 7.691406 18.597657 13.476562 27.535157-11.1875 3.445312-22.234375 8.046874-31.59375 14.1875-3.464844 2.269531-4.429687 6.917968-2.15625 10.382812 2.199219 3.351562 6.949219 4.410156 10.382813 2.15625 9.417969-6.175781 21.078125-10.628906 32.765625-13.832031 7.734375 9.515625 16.972656 18.605469 27.617187 27.105469 2.699219 2.15625 5.453125 4.238281 8.25 6.25-17.835937 12.414062-33.242187 28.394531-44.96875 46.726562-2.230469 3.488281-1.214843 8.125 2.277344 10.359375 3.445313 2.207031 8.15625 1.164063 10.355469-2.277344 6.871094-10.738281 15.125-20.589843 24.46875-29.257812 21.449218 15.296875 47.242187 26.722656 72.394531 32.074219v3.257812c0 9.765625 7.945313 17.707031 17.710937 17.707031h22.960938c9.765625 0 17.707031-7.941406 17.707031-17.707031v-3.292969c25.097657-5.410156 50.90625-16.890625 72.429688-32.230469 12.574219 11.621094 23.125 25.355469 31.152343 40.683594 8.578126 16.382813 13.972657 34.101563 16.019532 52.332032.011718.140624.023437.28125.046875.425781 2.800781 20.054687-.734375 40.609375-2.625 60.601562-.105469 1.148438-1.058594 2.011719-2.210938 2.011719h-40.328125v-24.59375c0-4.140625-3.355468-7.5-7.5-7.5-4.140625 0-7.496094 3.359375-7.496094 7.5v24.59375h-178.230468v-24.59375c0-4.140625-3.355469-7.5-7.496094-7.5-4.144531 0-7.5 3.359375-7.5 7.5v24.59375h-39.253906c-1.152344 0-2.101563-.863281-2.210938-2.011719-3.074218-32.503906-6.0625-63.289062 5.25-94.714843 1.402344-3.894532-.621094-8.191407-4.519531-9.59375-3.890625-1.402344-8.191406.617187-9.59375 4.515624-8.210937 22.800782-11.207031 46.714844-8.910156 71.082032l2.839843 30.121094c.839844 8.894531 8.207032 15.601562 17.144532 15.601562h287.804687c8.9375 0 16.304688-6.707031 17.144531-15.601562l.925782-9.824219c12.214844-16.53125 29.082031-30.054688 50.164062-40.214844 50.984375-24.574219 69.972656-61.160156 76.925782-87.527344 7.488281-28.394531 2.835937-51 2.28125-53.480469zm-167.730469-281.414062c-4.765625 6.902344-9.738281 14.617188-14.894531 23.109375-2.144532 3.542969-1.019532 8.15625 2.523437 10.300781 3.4375 2.085938 8.183594.96875 10.300781-2.519531 8.980469-14.800781 17.324219-27.070313 24.882813-36.597656 2.414062 5.488281 4.800781 19.394531 1.519531 49.242187-2.65625 24.15625-8.078125 49.996094-13.242188 69.203125-6.53125-9.054687-14.363281-17.4375-23.414062-24.976562-4.816406-4.011719-9.910156-7.722657-15.246094-11.132813 2.800782-5.398437 5.589844-10.667968 8.335938-15.722656 1.976562-3.640625.625-8.195312-3.015625-10.167969-3.644531-1.976562-8.195313-.625-10.167969 3.015625-2.695312 4.964844-5.429688 10.125-8.171875 15.410156-6.671875-3.417968-13.636719-6.40625-20.851563-8.941406 27.96875-32.394531 47.988282-50.699218 61.441407-60.222656zm-185.785157 60.222656c-7.214843 2.535156-14.179687 5.519532-20.847656 8.941406-14.410156-27.769531-28.144531-51.152343-40.574218-69.148437 13.453124 9.527344 33.46875 27.828125 61.421874 60.207031zm-85.773437-16.6875c-3.28125-29.851562-.894531-43.757812 1.523437-49.242187 14.589844 18.367187 31.839844 46.554687 50.378907 82.335937-5.332031 3.410156-10.425781 7.121094-15.242188 11.132813-9.054687 7.539062-16.886719 15.921875-23.417969 24.980469-5.160156-19.210938-10.582031-45.050782-13.242187-69.207032zm34.8125 210.964844c20.425781-3.863281 37.460937-4.347656 37.765625-4.355469 4.140625-.097656 7.417969-3.535156 7.316406-7.675781-.097656-4.140625-3.558594-7.433594-7.675781-7.316406-1.480469.035156-23.292969.644531-47.972656 6.183594-5.214844-7.375-9.898438-15.605469-13.355469-24.59375 29.699219-.554688 59.214844 6.988281 59.617188 7.09375 3.921874 1.019531 8.113281-1.402344 9.148437-5.367188 1.042969-4.007812-1.359375-8.105469-5.367187-9.148438-1.8125-.472656-34.6875-8.890624-67.75-7.453124-1.089844-5.398438-1.691407-11.015626-1.691407-16.832032 0-33.066406 14.707031-63.515625 41.40625-85.746094 26.65625-22.191406 62.773438-34.410156 101.691407-34.410156 38.917968 0 75.035156 12.21875 101.691406 34.410156 26.703125 22.230469 41.40625 52.679688 41.40625 85.746094 0 5.691406-.609375 11.3125-1.757813 16.828125-33.039062-1.421875-65.871093 6.984375-67.683593 7.457031-4.011719 1.042969-6.410157 5.140626-5.367188 9.148438 1.027344 3.933594 5.21875 6.390625 9.148438 5.363281.398437-.101562 29.792968-7.636719 59.457031-7.105469-3.339844 8.550782-7.914063 16.773438-13.429688 24.554688-24.585937-5.488281-46.265625-6.09375-47.742187-6.128906-.058594-.003906-.117188-.003906-.179688-.003906-4.058594 0-7.394531 3.238281-7.492187 7.320312-.101563 4.136719 3.175781 7.574219 7.3125 7.675781.308593.007813 17.203125.488281 37.519531 4.308594-30.582031 33.929687-78.191406 56.734375-112.882812 56.734375-27.789063 0-64.179688-14.722656-92.710938-37.507812-5.992188-4.785157-13.277344-11.242188-20.421875-19.179688zm127.222656 98.03125c0 1.496094-1.214843 2.710938-2.707031 2.710938h-22.960938c-1.496093 0-2.710937-1.214844-2.710937-2.710938v-7.578125c0-1.496094 1.214844-2.710937 2.710937-2.710937h22.960938c1.492188 0 2.707031 1.214843 2.707031 2.710937zm11.660157-17.917969c-3.21875-4.460937-8.460938-7.367187-14.367188-7.367187h-22.960938c-5.925781 0-11.175781 2.921875-14.394531 7.402344-22.007812-4.648438-44.589843-14.371094-63.789062-27.417969 3.089843-2.328125 6.269531-4.535157 9.53125-6.613281 26.578125 16.082031 55.726562 25.566406 80.230469 25.566406 24.253906 0 53.335937-9.542969 79.996093-25.722656 3.277344 2.082031 6.46875 4.28125 9.566407 6.597656-19.265626 13.089844-41.855469 22.859375-63.8125 27.554687zm248.8125-3.539062c-6.148438 23.3125-23.101563 55.746093-68.9375 77.835937-15.984376 7.703125-29.816407 17.210938-41.339844 28.398438.527344-8.242188.4375-16.464844-.257813-24.605469 10.019531-7.859375 21.253907-14.8125 33.453125-20.691406 31.632813-15.246094 51.460938-37.355469 58.941406-65.722657 5.53125-20.984374 2.011719-37.355468 1.976563-37.523437-.546875-2.445313-.109375-4.957031 1.234375-7.070313 1.34375-2.117187 3.429688-3.582031 5.878906-4.128906 2.445313-.546875 4.957032-.105468 7.070313 1.238282s3.578125 3.429687 4.125 5.878906c.472656 2.117187 4.4375 21.421875-2.144531 46.390625zm0 0"/></svg>