<svg height="512pt" viewBox="-13 0 512 512.00401" width="512pt" xmlns="http://www.w3.org/2000/svg"><path d="m189.597656 193.539062h6.726563c4.144531 0 7.5-3.359374 7.5-7.5 0-4.144531-3.355469-7.5-7.5-7.5h-2.4375v-16.125c0-4.144531-3.355469-7.5-7.5-7.5-4.140625 0-7.5 3.355469-7.5 7.5v20.414063c0 5.90625 4.804687 10.710937 10.710937 10.710937zm0 0"/><path d="m225.074219 219.523438c2.214843-3.5 1.171875-8.132813-2.328125-10.347657-3.5-2.214843-8.132813-1.175781-10.347656 2.324219-4.359376 6.890625-13.855469 11.34375-24.191407 11.34375-10.339843 0-19.835937-4.453125-24.191406-11.34375-2.21875-3.5-6.851563-4.539062-10.351563-2.324219-3.5 2.214844-4.542968 6.847657-2.328124 10.347657 7.152343 11.300781 21.28125 18.320312 36.871093 18.320312 15.585938 0 29.714844-7.019531 36.867188-18.320312zm0 0"/><path d="m234.9375 160.226562c4.144531 0 7.5-3.359374 7.5-7.5v-5.964843c0-4.140625-3.355469-7.5-7.5-7.5-4.140625 0-7.5 3.359375-7.5 7.5v5.964843c0 4.140626 3.359375 7.5 7.5 7.5zm0 0"/><path d="m141.460938 139.261719c-4.140626 0-7.5 3.359375-7.5 7.5v5.964843c0 4.140626 3.359374 7.5 7.5 7.5 4.144531 0 7.5-3.359374 7.5-7.5v-5.964843c0-4.140625-3.355469-7.5-7.5-7.5zm0 0"/><path d="m350.527344 366.378906c-2.292969 2.109375-7.378906 2.769532-10.875 1.257813v-.140625c9.484375-3.394532 16.59375-12.648438 16.59375-20.511719 0-9.851563-10.355469-17.277344-24.09375-17.277344-13.734375 0-24.09375 7.425781-24.09375 17.277344 0 7.863281 7.109375 17.117187 16.59375 20.511719v.140625c-3.496094 1.515625-8.578125.851562-10.871094-1.257813-3.046875-2.804687-7.792969-2.609375-10.597656.441406-2.804688 3.046876-2.609375 7.792969.441406 10.597657 4.109375 3.78125 10.128906 5.984375 16.511719 6.039062h.246093c4.304688 0 8.320313-.964843 11.769532-2.78125 3.453125 1.816407 7.46875 2.78125 11.773437 2.78125h.246094c6.382813-.054687 12.398437-2.257812 16.511719-6.039062 3.046875-2.804688 3.246094-7.550781.441406-10.597657-2.804688-3.050781-7.550781-3.246093-10.597656-.441406zm-18.375-12.550781c-4.519532 0-8.277344-4.488281-8.988282-6.523437.894532-.890626 3.914063-2.597657 8.988282-2.597657 5.078125 0 8.097656 1.707031 8.988281 2.597657-.707031 2.035156-4.46875 6.523437-8.988281 6.523437zm0 0"/><path d="m373.011719 337.746094c10.285156 0 18.652343-8.367188 18.652343-18.652344 0-4.140625-3.355468-7.5-7.5-7.5-4.140624 0-7.5 3.359375-7.5 7.5 0 2.015625-1.636718 3.652344-3.652343 3.652344-2.011719 0-3.648438-1.636719-3.648438-3.652344 0-4.140625-3.359375-7.5-7.5-7.5-4.144531 0-7.5 3.359375-7.5 7.5 0 10.285156 8.367188 18.652344 18.648438 18.652344zm0 0"/><path d="m309.945312 319.09375c0-4.140625-3.355468-7.5-7.5-7.5-4.144531 0-7.5 3.359375-7.5 7.5 0 2.015625-1.636718 3.652344-3.652343 3.652344-2.011719 0-3.652344-1.636719-3.652344-3.652344 0-4.140625-3.355469-7.5-7.5-7.5-4.140625 0-7.5 3.359375-7.5 7.5 0 10.285156 8.367187 18.652344 18.652344 18.652344 10.285156 0 18.652343-8.367188 18.652343-18.652344zm0 0"/><path d="m484.335938 386.363281c-1.050782-4.71875-3.875-8.746093-7.957032-11.335937-4.078125-2.59375-8.925781-3.441406-13.644531-2.386719-4.71875 1.050781-8.742187 3.878906-11.332031 7.960937-2.574219 4.046876-3.425782 8.851563-2.410156 13.53125.097656.542969 1.429687 8.269532-1.105469 17.894532-2.933594 11.117187-9.886719 20.425781-20.710938 27.761718-1.613281-4.644531-3.574219-9.183593-5.875-13.578124-6.949219-13.265626-16.707031-24.757813-28.566406-33.71875.503906-.386719 1.003906-.777344 1.5-1.171876 5.957031-4.734374 11.199219-9.769531 15.683594-15.027343 6.023437 1.777343 11.925781 4.148437 16.765625 7.324219 3.367187 2.207031 8.136718 1.269531 10.386718-2.160157 2.269532-3.460937 1.304688-8.113281-2.160156-10.382812-4.761718-3.125-10.222656-5.601563-15.839844-7.558594 2.152344-3.667969 3.964844-7.410156 5.421876-11.199219 2.148437.382813 4.230468.882813 6.207031 1.523438 3.933593 1.277344 8.167969-.878906 9.449219-4.820313 1.277343-3.9375-.882813-8.167969-4.820313-9.445312-2.277344-.738281-4.640625-1.332031-7.058594-1.796875.382813-2.757813.574219-5.527344.574219-8.296875 0-15.203125-4.398438-29.589844-12.664062-42.054688 3.234374-13.480469 5.5625-27.855469 6.300781-39.074219.800781-12.140624.597656-28.714843-10.351563-32.449218-7.261718-2.476563-16.0625 1.195312-28.542968 11.902344-6.527344 5.597656-13.988282 13.070312-22.214844 22.246093-9.296875-2.417969-19.125-3.671875-29.214844-3.671875-10.09375 0-19.917969 1.253906-29.21875 3.671875-4.257812-4.753906-8.3125-9.046875-12.140625-12.863281 16.820313-19.535156 26.003906-44.175781 26.003906-70.167969v-70.578125c0-27.03125-11.453125-52.992187-31.417969-71.222656-19.875-18.148438-46.617187-27.199219-73.429687-24.855469h-47.503906c-26.8125-2.339843-53.550781 6.707031-73.429688 24.855469-19.964843 18.230469-31.417969 44.191406-31.417969 71.222656v165.6875c0 6.972656 5.671876 12.644532 12.648438 12.644532h69.574219v3.140624c0 8.390626-5.96875 15.578126-14.195313 17.09375-31.527344 5.8125-62.019531 16.117188-90.617187 30.636719-22.828125 11.589844-37.00781275 34.691407-37.00781275 60.292969v26.175781c0 4.144531 3.35546875 7.5 7.49999975 7.5 4.140625 0 7.5-3.355469 7.5-7.5v-26.175781c0-19.921875 11.035156-37.898438 28.796875-46.917969 16.414063-8.332031 33.476563-15.210937 51.015625-20.578125 15.832032 17.730469 51.585938 29.339844 91.789063 29.339844 13.09375 0 25.792969-1.195312 37.597656-3.511719-.511719 1.488281-.5625 3.144531-.039063 4.753907 1.277344 3.941406 5.507813 6.101562 9.445313 4.820312 1.960937-.636719 4.03125-1.132812 6.167969-1.515625 1.445312 3.796875 3.242187 7.542969 5.382812 11.21875-5.589844 1.953125-11.019531 4.417969-15.761718 7.53125-3.464844 2.269531-4.429688 6.917969-2.160157 10.382813 1.441407 2.195312 3.835938 3.390624 6.28125 3.390624 1.410157 0 2.835938-.398437 4.105469-1.230468 4.796875-3.144532 10.648438-5.503906 16.636719-7.273438 4.445312 5.238282 9.636719 10.253906 15.535156 14.964844.546875.4375 1.097656.867188 1.652344 1.292969-8.578125 6.523437-16.152344 14.445312-22.238281 23.316406-2.347657 3.414063-1.480469 8.082031 1.9375 10.425781 1.296874.890625 2.773437 1.320313 4.238281 1.320313 2.386719 0 4.734375-1.140625 6.1875-3.257813 6.164062-8.980468 14.113281-16.816406 23.15625-22.867187 15.765625 9.199219 32.898437 14.59375 47.421875 14.59375 14.382812 0 31.480468-5.429688 47.289062-14.6875 26.058594 17.351562 40.832032 48.003906 37.878906 79.328125l-1.527343 16.226562h-19.238281v-15.609375c0-4.140625-3.359376-7.5-7.5-7.5-4.144532 0-7.5 3.359375-7.5 7.5v15.609375h-99.4375v-15.609375c0-4.140625-3.355469-7.5-7.5-7.5-4.140626 0-7.5 3.359375-7.5 7.5v15.609375h-18.601563l-1.527344-16.226562c-.835937-8.867188-.3125-17.71875 1.5625-26.308594.882813-4.046875-1.679687-8.042969-5.726562-8.929688-4.046875-.886718-8.046875 1.683594-8.929688 5.730469-2.203125 10.105469-2.824219 20.503907-1.839843 30.917969l1.394531 14.816406h-164.652344v-82.488281c0-4.140625-3.359375-7.5-7.5-7.5-4.144531 0-7.5 3.359375-7.5 7.5v82.488281h-38.792969v-49.996094c0-4.140624-3.359375-7.5-7.5-7.5-4.144531 0-7.49999975 3.359376-7.49999975 7.5v52.351563c0 6.972656 5.67187475 12.644531 12.64453175 12.644531h405.285156c6.5625 0 11.972656-4.925781 12.589844-11.457031l1.730468-18.359375c.121094-1.304688.21875-2.609375.289063-3.914062.1875-.09375.371093-.183594.558593-.273438 32.964844-15.886719 45.265626-39.625 49.777344-56.742188 4.769532-18.089843 2.050782-32.246093 1.457032-34.894531zm-77.660157-155.976562c1.871094 4.976562 1.503907 21.324219-2.695312 42.644531-1.273438-1.199219-2.597657-2.371094-3.964844-3.507812-6.898437-5.742188-14.710937-10.492188-23.1875-14.164063 18.691406-20.121094 27.179687-24.164063 29.847656-24.972656zm-126.902343-3.390625c-.652344-.546875-1.296876-1.078125-1.929688-1.589844 6.082031-12.101562 9.160156-25.234375 9.160156-39.113281l.011719-4.566407c4.875 0 10.046875-1.203124 14.09375-3.324218-2.191406 17.949218-9.546875 34.738281-21.335937 48.59375zm7.703124 28.363281c-8.472656 3.671875-16.285156 8.421875-23.1875 14.164063-1.367187 1.136718-2.6875 2.308593-3.964843 3.507812-4.199219-21.320312-4.566407-37.667969-2.691407-42.644531 2.667969.808593 11.152344 4.851562 29.84375 24.972656zm14.320313-102.855469c0 7.84375-6.902344 14.222656-14.734375 14.222656l.117188-38.714843c7.832031 0 14.617187 6.378906 14.617187 14.21875zm-.132813-60.714844c.089844 1.546876.132813 24.917969.132813 24.917969-3.554687-1.988281-7.566406-3.253906-11.832031-3.601562 2.664062-2.132813 4.800781-4.929688 6.179687-8.203125zm-9.835937-22.53125c1.105469 1.589844 1.496094 3.671876.707031 5.558594 0 0-10.214844 24.265625-10.214844 24.265625-1.628906 3.867188-7 4.761719-9.796874 1.65625l-14.5-16.109375 7.191406-17.085937s21.625-.886719 21.660156-.886719c2.042969-.085938 3.851562 1.011719 4.953125 2.601562zm-217.226563 27.183594c0-22.828125 9.671876-44.75 26.53125-60.144531 16.855469-15.394531 39.566407-23.03125 62.304688-20.960937.226562.019531 49.300781.019531 49.527344 0 22.746094-2.066407 45.445312 5.570312 62.304687 20.960937 5.035157 4.597656 9.429688 9.777344 13.113281 15.386719-.703124-.042969-25.019531.921875-25.019531.921875-.96875-.898438-2.09375-1.628907-3.347656-2.15625l-16.066406-6.761719c-1.265625-.53125-2.574219-.820312-3.871094-.878906l-15.335937-17.035156c-4.808594-5.339844-11.90625-7.820313-19-6.617188-7.085938 1.195312-12.980469 5.863281-15.769532 12.488281l-10.214844 24.269531c-2.789062 6.625-2.003906 14.105469 2.09375 20.011719 3.332032 4.800781 8.40625 7.910157 14.046876 8.746094-29.851563 27.585937-83.507813 19.988281-95.066407 17.953125-2.921875-.511719-5.898437.289062-8.164062 2.199219-2.269531 1.910156-3.5625 4.710937-3.550781 7.675781v.511719h-.308594c-5.152344 0-10 1.339843-14.207032 3.695312zm176.296876-33.550781-6.210938 14.753906-9.46875-3.984375 6.210938-14.757812zm-22.804688-10.972656-7.191406 17.089843s-21.65625.886719-21.65625.886719c-4.21875.152344-7.296875-4.273437-5.660156-8.160156l10.210937-24.269531c1.644531-3.902344 6.976563-4.785156 9.796875-1.652344zm-153.492188 90.3125c0-7.839844 6.742188-14.21875 14.574219-14.21875l.148438 38.714843c-7.832031 0-14.722657-6.378906-14.722657-14.222656zm0 117.542969v-81.742188c4.210938 2.351562 9.625 3.695312 14.78125 3.695312l.015626 4.542969c0 36.535157 20.804687 60.101563 38.253906 73.433594.03125.023437.0625.046875.089844.070313zm62.15625-11.988282c-14.761718-11.28125-32.359374-31.109375-32.359374-61.542968l-.257813-67.921876c10.46875 1.449219 28.449219 3.003907 47.65625.492188 29.269531-3.832031 50.898437-15.464844 64.351563-34.597656l6.609374-.273438c.964844.898438 2.089844 1.628906 3.34375 2.152344l16.066407 6.765625c1.253906.527344 2.5625.824219 3.878906.886719l15.328125 17.027344c2.933594 3.257812 6.722656 5.449218 10.835938 6.390624l-.207032 69.105469c0 10.953125-2.300781 21.324219-6.84375 30.929688-4.957031-2.203125-9.183594-2.59375-12.984375-1.296875-5.085937 1.734375-11.621093 6.789062-10.472656 30.261718-17.8125 14.335938-39.992187 22.125-53.503906 22.472657-12.070313-.3125-33.25-6.953125-51.441407-20.851563zm98.785157 78.226563c-14.46875 4.4375-31.265625 6.769531-48.9375 6.769531-31.234375 0-59.746094-7.503906-74.871094-19.011719 6.15625-1.519531 12.363281-2.859375 18.613281-4.011719 15.34375-2.828124 26.476563-16.34375 26.476563-33.46875 11.867187 4.800782 23 7.171876 31.21875 7.347657h.160156.160156c8.265625-.175781 19.394531-2.574219 31.214844-7.351563 0 15.378906 7.695313 26.066406 19.109375 31.183594-1.800781 5.964844-2.863281 12.171875-3.144531 18.542969zm8.894531-32.414063c-5.90625-2.824218-9.859375-8.859375-9.859375-15.683594v-8.871093c2.996094-1.695313 5.980469-3.542969 8.917969-5.546875 1.136718 7.734375 2.726562 15.988281 4.636718 23.929687-1.332031 2.007813-2.566406 4.066407-3.695312 6.171875zm140.464844 85.980469c-16.476563 13.09375-37.179688 21.554687-52.75 21.554687-18.484375 0-43.394532-11.285156-60.828125-28.460937 9.171875-1.367187 16.125-1.570313 16.273437-1.574219 4.136719-.101562 7.414063-3.535156 7.3125-7.675781-.097656-4.140625-3.515625-7.375-7.675781-7.320313-.851563.019532-12.859375.359376-26.949219 3.304688-1.738281-2.617188-3.285156-5.316406-4.605468-8.082031 15.335937.414062 29.484374 4.003906 29.839843 4.09375.636719.167969 1.273438.246093 1.898438.246093 3.332031 0 6.371093-2.238281 7.253906-5.609374 1.042969-4.007813-1.359375-8.105469-5.367187-9.152344-1.046876-.269532-19.179688-4.914063-38.324219-4.578125-.339844-2.253907-.515625-4.539063-.515625-6.84375 0-18.65625 8.316406-35.855469 23.421875-48.429688 15.238281-12.683593 35.933593-19.671875 58.265625-19.671875 22.335937 0 43.027344 6.988282 58.269531 19.671875 15.101563 12.574219 23.421875 29.773438 23.421875 48.429688 0 1.945312-.140625 4.246093-.542969 6.84375-19.136719-.332031-37.25 4.308593-38.296875 4.578125-4.011718 1.046875-6.414062 5.144531-5.367187 9.152344.878906 3.371093 3.921875 5.609374 7.253906 5.609374.625 0 1.261719-.078124 1.894531-.246093.210938-.054688 14.386719-3.6875 29.796875-4.105469-1.242187 2.597656-2.761719 5.304688-4.617187 8.082031-14.066406-2.933593-26.039063-3.269531-26.894532-3.292969-.058593 0-.117187 0-.179687 0-4.058594 0-7.398437 3.242188-7.496094 7.320313-.097656 4.144531 3.179688 7.578125 7.320313 7.675781.148437.007813 7.011718.195313 16.105468 1.539063-2.367187 2.304687-5 4.621093-7.917968 6.941406zm83.472656 37.851563c-3.453125 13.097656-12.582031 30.976562-36.277344 44.199218-.242187-2.214844-.558594-4.417968-.949218-6.609375 16.441406-9.703125 26.941406-22.859375 31.242187-39.167969 3.601563-13.664062 1.375-24.371093 1.265625-24.875-.371094-1.664062.679688-3.324218 2.347656-3.695312 1.660156-.363281 3.324219.699219 3.695313 2.351562.109375.503907 2.710937 12.503907-1.324219 27.796876zm0 0"/></svg>