<svg height="512pt" viewBox="-35 0 512 512.001" width="512pt" xmlns="http://www.w3.org/2000/svg"><path d="m380.175781 163.414062c-8.355469 0-16.367187 3.320313-22.273437 9.226563l-64.34375 64.34375c-9.007813 8.976563-24.347656 4.964844-27.804688-7.277344l-13.792968-48.859375c-4.425782-15.671875-18.730469-26.496094-35.015626-26.496094h-209.445312c0 84.515626 68.511719 153.027344 153.027344 153.027344h62.398437c-14.664062 14.617188-32.910156 25.125-52.910156 30.472656l-155.132813 41.484376c5.660157 21.128906 27.382813 33.667968 48.511719 28.007812l81.058594-21.628906-71.917969 71.835937c15.464844 15.46875 40.542969 15.46875 56.011719 0l50.035156-49.898437-25.644531 95.492187c21.128906 5.660157 42.847656-6.878906 48.507812-28.007812l25.363282-92.980469-.089844-.046875c37.082031 16.199219 80.714844 8.265625 109.738281-20.757813l26.464844-26.464843c21.589844-21.589844 21.589844-56.589844 0-78.179688l39.523437-39.523437c19.84375-19.84375 5.789063-53.769532-22.269531-53.769532zm0 0" fill="#fff5cc"/><path d="m410.292969 185.746094c2.886719 9.371094 1.53125 20.074218-5.457031 28.742187h29.414062c0-14.339843-10.332031-26.261719-23.957031-28.742187zm0 0" fill="#ffb655"/><g fill="#ffc477"><path d="m216.945312 154.351562c16.285157 0 30.589844 10.824219 35.015626 26.496094l13.792968 48.859375c3.457032 12.238281 18.796875 16.253907 27.804688 7.277344l6.25-6.25-2.507813-2.511719c-4.128906-6.332031-4.480469-14.578125-.570312-21.320312l19.292969-33.277344c6.765624-12.09375 4.675781-27.210938-5.125-37.007812l-126.007813-126.011719c-38.863281 38.863281-48.023437 96.183593-27.480469 143.746093zm0 0"/><path d="m44.886719 379.335938 155.132812-41.484376c20-5.347656 38.246094-15.855468 52.910157-30.472656h-30.003907c-14.664062 14.617188-32.910156 25.125-52.910156 30.472656l-155.132813 41.484376c5.660157 21.128906 27.382813 33.667968 48.511719 28.007812l5.246094-1.402344c-11.28125-4.445312-20.375-13.996094-23.753906-26.605468zm0 0"/><path d="m160.53125 307.382812h30c-84.515625 0-153.027344-68.515624-153.027344-153.03125h179.449219c-.003906 0-.007813 0-.007813 0h-209.445312c0 84.515626 68.515625 153.03125 153.03125 153.03125zm0 0"/><path d="m323.5625 236.984375 64.34375-64.34375c2.195312-2.199219 4.683594-4.035156 7.375-5.480469-4.355469-2.367187-9.445312-3.746094-15.105469-3.746094-8.355469 0-16.363281 3.316407-22.273437 9.222657l-60.667969 60.671875c5.152344 9.34375 18.273437 11.703125 26.328125 3.675781zm0 0"/><path d="m102.535156 457.550781 71.917969-71.835937-40.9375 10.921875-60.980469 60.914062c11.625 11.625 28.683594 14.511719 43.007813 8.660157-4.734375-1.933594-9.167969-4.820313-13.007813-8.660157zm0 0"/><path d="m208.585938 407.652344-40.980469 40.867187-14.667969 54.625c11.050781 2.960938 22.265625.941407 31.257812-4.679687zm0 0"/></g><path d="m441.75 214.488281c0-16.246093-10.609375-30.351562-25.785156-35.0625-6.261719-14.519531-19.921875-23.511719-35.789063-23.511719-10.417969 0-20.210937 4.054688-27.574219 11.421876l-64.335937 64.335937c-3.351563 3.339844-7.261719 2.773437-8.789063 2.375-1.527343-.398437-5.214843-1.820313-6.503906-6.375l-13.792968-48.859375c-5.3125-18.816406-22.683594-31.960938-42.234376-31.960938h-216.945312v7.5c0 88.515626 72.015625 160.53125 160.53125 160.53125h41.664062c-10.359374 7.117188-21.902343 12.457032-34.117187 15.722657l-162.382813 43.421875 1.941407 7.25c3.257812 12.152344 11.054687 22.3125 21.949219 28.605468 10.898437 6.289063 23.59375 7.960938 35.738281 4.707032l54.039062-14.417969-57.441406 57.375 5.308594 5.308594c18.367187 18.367187 48.253906 18.367187 66.613281.007812l30.246094-30.164062-20.347656 75.75c7.457031 1.996093 12.039062 3.550781 19.433593 3.550781 20.796875 0 39.878907-13.894531 45.503907-34.886719l23.175781-84.960937c17.367187 5.957031 35.914062 7.316406 54.132812 3.910156 21.21875-3.96875 40.503907-14.140625 55.773438-29.40625l26.464843-26.464844c11.855469-11.859375 18.386719-27.625 18.386719-44.394531 0-14.246094-4.710937-27.765625-13.394531-38.78125l34.53125-34.53125c.164062-.164063.328125-.328125.488281-.496094h33.511719zm-84.132812 47.519531c18.632812 18.632813 18.632812 48.945313 0 67.574219l-26.460938 26.464844c-26.863281 26.863281-66.679688 34.371094-101.433594 19.191406l-14.707031-6.761719-6.269531 13.628907 9.152344 4.210937-23.695313 86.882813c-3.914063 14.601562-17.371094 24.164062-31.847656 23.789062l30.71875-114.378906-69.832031 69.636719c-10.691407 10.695312-27.109376 12.253906-39.472657 4.683594l85.769531-85.667969-108.085937 28.835937c-8.285156 2.21875-16.9375 1.082032-24.363281-3.207031-5.210938-3.007813-9.382813-7.3125-12.171875-12.472656l147.035156-39.320313c21.238281-5.679687 40.695313-16.882812 56.265625-32.402344l12.859375-12.8125h-80.546875c-77.730469 0-141.417969-61.261718-145.339844-138.03125h201.753906c12.867188 0 24.296876 8.648438 27.796876 21.035157l13.792968 48.859375c2.355469 8.335937 8.761719 14.621094 17.140625 16.8125 8.378907 2.191406 17.042969-.148438 23.1875-6.273438l64.34375-64.339844c4.53125-4.535156 10.558594-7.03125 16.96875-7.03125 16.449219 0 26.183594 15.023438 23.625 28.605469-.914062 4.71875-3.328125 9.027344-6.65625 12.359375l-44.828125 44.828125zm59.757812-55.019531c.960938-2.917969 1.5625-5.9375 1.789062-9.003906 2.804688 2.40625 4.96875 5.503906 6.253907 9.003906zm0 0"/><path d="m198.984375 185.097656h-100.109375v15h100.109375c3.550781 0 6.707031 2.386719 7.675781 5.8125l5.09375 17.976563h-71.160156v15.003906h75.414062l6.445313 22.730469h-46.511719v15h50.765625l3.449219 12.171875 14.433594-4.09375-23.496094-82.875c-2.78125-9.847657-11.875-16.726563-22.109375-16.726563zm0 0"/><path d="m48.871094 185.097656h15v15h-15zm0 0"/><path d="m73.875 185.097656h15v15h-15zm0 0"/><path d="m157.925781 132.53125c-9.949219-39.820312.1875-80.824219 27.121094-111.160156l120.550781 120.550781c7.375 7.375 8.980469 18.882813 3.90625 27.996094l-17.359375 29.945312 12.976563 7.523438 17.394531-30 .054687-.097657c8.367188-14.957031 5.75-33.859374-6.363281-45.976562l-131.316406-131.3125-5.304687 5.304688c-17.121094 17.117187-29.453126 38.464843-35.664063 61.730468-6.019531 22.5625-6.210937 46.46875-.550781 69.132813zm0 0"/><path d="m266.34375 372.882812v-15.003906c17.8125 0 34.550781-6.925781 47.132812-19.511718l24.75-24.75 10.609376 10.605468-24.753907 24.753906c-15.414062 15.414063-35.921875 23.90625-57.738281 23.90625zm89.992188-57.800781-12.890626-7.671875c1.914063-3.214844 3-6.914062 3.148438-10.695312l14.988281.585937c-.242187 6.273438-2.058593 12.421875-5.246093 17.78125zm-10.667969-25.816406c-1.0625-3.582031-3.042969-6.890625-5.730469-9.578125l10.609375-10.605469c4.441406 4.445313 7.730469 9.945313 9.503906 15.90625zm0 0" fill="#fff"/><path d="m263.96875 146.316406-47.148438-47.144531 10.609376-10.609375 47.148437 47.148438zm-54.21875-54.21875-10.605469-10.605468 10.605469-10.609376 10.609375 10.609376zm-17.679688-17.675781-10.605468-10.609375 10.605468-10.605469 10.609376 10.605469zm0 0" fill="#fff"/></svg>