<svg height="512pt" viewBox="-35 0 512 512.001" width="512pt" xmlns="http://www.w3.org/2000/svg"><path d="m441.75 214.488281c0-16.246093-10.609375-30.351562-25.785156-35.0625-6.261719-14.519531-19.921875-23.511719-35.789063-23.511719-10.417969 0-20.210937 4.054688-27.574219 11.421876l-64.335937 64.335937c-3.351563 3.339844-7.261719 2.773437-8.789063 2.375-1.527343-.398437-5.214843-1.820313-6.503906-6.375l-13.792968-48.859375c-5.3125-18.816406-22.683594-31.960938-42.234376-31.960938h-216.945312v7.5c0 88.515626 72.015625 160.53125 160.53125 160.53125h41.664062c-10.359374 7.117188-21.902343 12.457032-34.117187 15.722657l-162.382813 43.421875 1.941407 7.25c3.257812 12.152344 11.054687 22.3125 21.949219 28.605468 10.898437 6.289063 23.59375 7.960938 35.738281 4.707032l54.039062-14.417969-57.441406 57.375 5.308594 5.308594c18.367187 18.367187 48.253906 18.367187 66.613281.007812l30.246094-30.164062-20.347656 75.75c7.457031 1.996093 12.039062 3.550781 19.433593 3.550781 20.796875 0 39.878907-13.894531 45.503907-34.886719l23.175781-84.960937c17.367187 5.957031 35.914062 7.316406 54.132812 3.910156 21.21875-3.96875 40.503907-14.140625 55.773438-29.40625l26.464843-26.464844c11.855469-11.859375 18.386719-27.625 18.386719-44.394531 0-14.246094-4.710937-27.765625-13.394531-38.78125l34.53125-34.53125c.164062-.164063.328125-.328125.488281-.496094h33.511719zm-84.132812 47.519531c18.632812 18.632813 18.632812 48.945313 0 67.574219l-26.460938 26.464844c-26.863281 26.863281-66.679688 34.371094-101.433594 19.191406l-14.707031-6.761719-6.269531 13.628907 9.152344 4.210937-23.695313 86.882813c-3.914063 14.601562-17.371094 24.164062-31.847656 23.789062l30.71875-114.378906-69.832031 69.636719c-10.691407 10.695312-27.109376 12.253906-39.472657 4.683594l85.769531-85.667969-108.085937 28.835937c-8.285156 2.21875-16.9375 1.082032-24.363281-3.207031-5.210938-3.007813-9.382813-7.3125-12.171875-12.472656l147.035156-39.320313c21.238281-5.679687 40.695313-16.882812 56.265625-32.402344l12.859375-12.8125h-80.546875c-77.730469 0-141.417969-61.261718-145.339844-138.03125h201.753906c12.867188 0 24.296876 8.648438 27.796876 21.035157l13.792968 48.859375c2.355469 8.335937 8.761719 14.621094 17.140625 16.8125 8.378907 2.191406 17.042969-.148438 23.1875-6.273438l64.34375-64.339844c4.53125-4.535156 10.558594-7.03125 16.96875-7.03125 16.449219 0 26.183594 15.023438 23.625 28.605469-.914062 4.71875-3.328125 9.027344-6.65625 12.359375l-44.828125 44.828125zm59.757812-55.019531c.960938-2.917969 1.5625-5.9375 1.789062-9.003906 2.804688 2.40625 4.96875 5.503906 6.253907 9.003906zm0 0"/><path d="m198.984375 185.097656h-100.109375v15h100.109375c3.550781 0 6.707031 2.386719 7.675781 5.8125l5.09375 17.976563h-71.160156v15.003906h75.414062l6.445313 22.730469h-46.511719v15h50.765625l3.449219 12.171875 14.433594-4.09375-23.496094-82.875c-2.78125-9.847657-11.875-16.726563-22.109375-16.726563zm0 0"/><path d="m48.871094 185.097656h15v15h-15zm0 0"/><path d="m73.875 185.097656h15v15h-15zm0 0"/><path d="m157.925781 132.53125c-9.949219-39.820312.1875-80.824219 27.121094-111.160156l120.550781 120.550781c7.375 7.375 8.980469 18.882813 3.90625 27.996094l-17.359375 29.945312 12.976563 7.523438 17.394531-30 .054687-.097657c8.367188-14.957031 5.75-33.859374-6.363281-45.976562l-131.316406-131.3125-5.304687 5.304688c-17.121094 17.117187-29.453126 38.464843-35.664063 61.730468-6.019531 22.5625-6.210937 46.46875-.550781 69.132813zm0 0"/><path d="m266.34375 372.882812v-15.003906c17.8125 0 34.550781-6.925781 47.132812-19.511718l24.75-24.75 10.609376 10.605468-24.753907 24.753906c-15.414062 15.414063-35.921875 23.90625-57.738281 23.90625zm89.992188-57.800781-12.890626-7.671875c1.914063-3.214844 3-6.914062 3.148438-10.695312l14.988281.585937c-.242187 6.273438-2.058593 12.421875-5.246093 17.78125zm-10.667969-25.816406c-1.0625-3.582031-3.042969-6.890625-5.730469-9.578125l10.609375-10.605469c4.441406 4.445313 7.730469 9.945313 9.503906 15.90625zm0 0"/><path d="m263.96875 146.316406-47.148438-47.144531 10.609376-10.609375 47.148437 47.148438zm-54.21875-54.21875-10.605469-10.605468 10.605469-10.609376 10.609375 10.609376zm-17.679688-17.675781-10.605468-10.609375 10.605468-10.605469 10.609376 10.605469zm0 0"/></svg>