<?xml version="1.0" encoding="iso-8859-1"?>
<!-- Generator: Adobe Illustrator 19.0.0, SVG Export Plug-In . SVG Version: 6.00 Build 0)  -->
<svg version="1.1" id="Capa_1" xmlns="http://www.w3.org/2000/svg" xmlns:xlink="http://www.w3.org/1999/xlink" x="0px" y="0px"
	 viewBox="0 0 511.998 511.998" style="enable-background:new 0 0 511.998 511.998;" xml:space="preserve">
<g>
	<g>
		<circle cx="188.896" cy="244.432" r="15.97"/>
	</g>
</g>
<g>
	<g>
		<circle cx="323.106" cy="244.432" r="15.97"/>
	</g>
</g>
<g>
	<g>
		<path d="M297.433,379.056c-10.57,0-18.815-2.906-24.51-8.636c-6.314-6.354-8.39-14.972-9.074-19.989
			c13.788-3.52,23.909-16.016,28.916-23.551c0.425-0.638,0.884-1.302,1.358-1.987c3.309-4.779,7.839-11.324,7.504-18.867
			c-0.34-7.617-5.937-12.376-16.635-14.145c-9.05-1.496-17.78-2.281-25.99-2.33h-6.05c-8.165,0.049-16.895,0.833-25.945,2.33
			c-10.699,1.769-16.297,6.528-16.635,14.146c-0.336,7.542,4.195,14.086,7.504,18.866c0.475,0.686,0.935,1.35,1.358,1.987
			c7.282,10.957,17.095,19.059,27.632,22.814c0.44,0.156,0.885,0.276,1.328,0.412c-0.637,4.931-2.654,13.75-9.035,20.23
			c-5.697,5.786-13.972,8.721-24.594,8.721c-4.149,0-7.512,3.362-7.512,7.512c0,4.15,3.362,7.512,7.512,7.512
			c14.794,0,26.671-4.442,35.298-13.203c2.466-2.504,4.48-5.196,6.136-7.932c1.656,2.736,3.67,5.429,6.136,7.932
			c8.628,8.761,20.504,13.203,35.298,13.203c4.15,0,7.512-3.362,7.512-7.512C304.945,382.418,301.583,379.056,297.433,379.056z
			 M258.314,336.237c-0.001,0-0.002,0-0.002,0.001c-2.185,0.288-4.281,0.062-6.405-0.694c-7.502-2.674-14.661-8.705-20.161-16.979
			c-0.474-0.713-0.987-1.455-1.518-2.223c-1.84-2.656-4.278-6.178-4.764-8.678c0.657-0.26,1.849-0.605,3.994-0.961
			c8.273-1.368,16.208-2.084,23.539-2.128h5.96c7.376,0.044,15.311,0.76,23.584,2.128c2.146,0.355,3.337,0.7,3.994,0.961
			c-0.488,2.501-2.925,6.021-4.764,8.678c-0.531,0.768-1.045,1.51-1.518,2.223C273.513,328.706,265.312,335.313,258.314,336.237z"/>
	</g>
</g>
<g>
	<g>
		<path d="M506.989,384.576l-42.427-14.995c11.718-24.636,17.879-51.362,17.879-78.946c0-8.369-0.591-16.714-1.746-24.984
			l26.292-9.293c3.911-1.382,5.961-5.674,4.579-9.585s-5.675-5.962-9.585-4.579l-24.035,8.495
			c-4.508-19.982-12.353-39.312-23.355-57.178c-2.401-3.899-3.584-8.336-3.418-12.845l1.718-48.828
			c0.146-4.146-3.097-7.625-7.242-7.771c-0.09-0.004-0.179-0.005-0.269-0.005c-4.026,0-7.36,3.192-7.502,7.247l-1.718,48.817
			c-0.273,7.475,1.677,14.828,5.64,21.262c10.446,16.965,17.82,35.346,21.895,54.336l-104.814,37.046
			c-3.911,1.382-5.961,5.674-4.579,9.585c1.09,3.084,3.987,5.011,7.082,5.011c0.83,0,1.676-0.139,2.503-0.432l102.306-36.16
			c0.796,6.585,1.223,13.214,1.223,19.859c0,26.223-6.147,51.198-17.215,73.871l-86.314-30.508
			c-3.912-1.383-8.203,0.668-9.585,4.579c-1.382,3.911,0.668,8.203,4.579,9.585l84.063,29.712
			c-35.503,59.266-105.975,99.738-186.946,99.738c-46.042,0-89.807-12.866-126.564-37.205c-3.459-2.291-8.121-1.344-10.41,2.115
			c-2.291,3.458-1.344,8.12,2.115,10.41c39.225,25.975,85.859,39.704,134.859,39.704c60.32,0,117.07-20.904,159.797-58.861
			c17.026-15.125,31.008-32.243,41.701-50.758l44.486,15.723c0.827,0.292,1.673,0.432,2.503,0.432c3.094,0,5.992-1.927,7.082-5.011
			C512.95,390.25,510.9,385.958,506.989,384.576z"/>
	</g>
</g>
<g>
	<g>
		<path d="M449.934,21.72c-4.329-2.808-9.675-3.127-14.305-0.854L297.795,88.523c-3.525,1.731-7.535,2.391-11.581,1.904
			c-19.937-2.381-40.491-2.381-60.426,0c-4.05,0.481-8.058-0.175-11.582-1.904L76.371,20.865c-4.628-2.273-9.979-1.954-14.305,0.854
			c-4.326,2.807-6.796,7.561-6.607,12.715l5.364,146.241c0.165,4.497-1.018,8.936-3.419,12.835
			c-11,17.865-18.845,37.193-23.353,57.176l-24.035-8.495c-3.91-1.383-8.203,0.668-9.585,4.579
			c-1.382,3.911,0.668,8.203,4.579,9.585l26.293,9.294c-1.155,8.269-1.745,16.615-1.745,24.984c0,27.23,6.232,54.096,18.009,78.9
			L5.011,384.575c-3.911,1.382-5.961,5.674-4.579,9.585c1.09,3.084,3.987,5.011,7.082,5.011c0.83,0,1.676-0.139,2.503-0.432
			l44.601-15.764c7.08,12.313,15.58,24.006,25.428,34.836c1.481,1.63,3.518,2.458,5.56,2.458c1.804,0,3.612-0.646,5.052-1.954
			c3.069-2.79,3.295-7.542,0.504-10.612c-8.559-9.41-15.983-19.37-22.236-29.784l84.191-29.757c3.911-1.382,5.961-5.674,4.579-9.585
			c-1.382-3.912-5.675-5.962-9.585-4.579l-86.44,30.552c-11.261-23.068-17.089-48.021-17.089-73.915
			c0-6.645,0.428-13.274,1.223-19.858l102.305,36.16c0.827,0.292,1.673,0.432,2.503,0.432c3.095,0,5.992-1.927,7.082-5.011
			c1.382-3.911-0.668-8.203-4.579-9.585L48.303,255.725c4.074-18.99,11.448-37.372,21.894-54.335
			c3.963-6.437,5.913-13.79,5.64-21.263L70.502,34.72l137.083,67.289c6.134,3.011,13.04,4.166,19.983,3.336
			c18.758-2.24,38.104-2.24,56.863,0c6.94,0.825,13.849-0.326,19.982-3.336L441.496,34.72l-1.614,43.979
			c-0.151,4.146,3.086,7.63,7.231,7.783c4.152,0.152,7.631-3.086,7.783-7.231l1.645-44.816
			C456.73,29.281,454.261,24.526,449.934,21.72z"/>
	</g>
</g>
<g>
	<g>
		<path d="M163.594,110.137L112.499,83.07c-4.01-2.122-8.868-1.909-12.674,0.561c-3.808,2.47-5.983,6.818-5.678,11.346l3.714,55.096
			c0,0,0,0,0,0.001c0.319,4.733,3.231,8.825,7.599,10.676c1.589,0.673,3.254,1.003,4.907,1.003c2.9,0,5.756-1.015,8.069-2.967
			c17.506-14.782,33.319-22.185,43.502-25.792c4.67-1.655,7.922-5.919,8.285-10.865C170.587,117.17,167.985,112.465,163.594,110.137
			z M112.522,144.2l-3.083-45.749l42.237,22.376C141.356,125.02,127.553,132.174,112.522,144.2z"/>
	</g>
</g>
<g>
	<g>
		<path d="M412.172,83.632c-3.809-2.471-8.665-2.684-12.674-0.561l-51.095,27.068c-4.391,2.326-6.993,7.032-6.629,11.99
			c0.363,4.945,3.615,9.208,8.286,10.865c10.182,3.608,25.995,11.009,43.502,25.792c2.313,1.952,5.168,2.967,8.069,2.967
			c1.652,0,3.319-0.33,4.907-1.003c4.367-1.852,7.279-5.943,7.599-10.676c0-0.001,0-0.001,0-0.001l3.714-55.096
			C418.155,90.45,415.98,86.102,412.172,83.632z M399.474,144.2c-15.031-12.026-28.835-19.18-39.155-23.373l42.238-22.376
			L399.474,144.2z"/>
	</g>
</g>
<g>
</g>
<g>
</g>
<g>
</g>
<g>
</g>
<g>
</g>
<g>
</g>
<g>
</g>
<g>
</g>
<g>
</g>
<g>
</g>
<g>
</g>
<g>
</g>
<g>
</g>
<g>
</g>
<g>
</g>
</svg>
