<svg height="512pt" viewBox="0 -13 512.00027 512" width="512pt" xmlns="http://www.w3.org/2000/svg"><path d="m68.519531 357.25c-29.058593-11.40625-60.941406 9.285156-60.941406 39.640625 0 41.511719 55.414063 58.574219 80.347656 24.816406-9.261719-15.753906-17.402343-34.785156-19.40625-64.457031zm0 0" fill="#d1d0cf"/><path d="m27.582031 396.890625c0-20.296875 14.640625-37.285156 34.273438-41.667969-27.621094-6.183594-54.277344 14.023438-54.277344 41.667969 0 27.453125 26.4375 47.882813 54.277344 41.671875-19.636719-4.386719-34.273438-21.371094-34.273438-41.671875zm0 0" fill="#afafaf"/><path d="m408.308594 306.140625c42.308594 6.75 69.769531-18.4375 89.273437-37.941406 20.921875-20.921875-9.152343-18.304688-36.609375-60.800781-19.574218-30.292969-48.726562-31.816407-63.847656-30.191407-4.816406.515625-8.792969-3.730469-8.007812-8.507812 4.625-28.171875 13.773437-107.027344-19.921876-148.359375-40.652343-49.863282-93.515624 51.441406-29.734374 174.882812 3.046874 5.902344 3.300781 12.855469.714843 18.976563-4.003906 9.464843-12.535156 22.992187-30.390625 32.957031-30.398437 16.964844-89.996094-55.625-168.332031-16.226562-84.617187 42.558593-81.136719 115.804687-69.332031 160.0625 7.914062 29.691406 31.109375 58.726562 45.515625 74.625 7.175781 7.914062 17.351562 12.429687 28.035156 12.429687h166.707031c19.203125 0 7.34375-45.378906-27.273437-45.378906 42.046875 0 52.109375-25.257813 52.109375-25.257813-.394532-.671875 8.707031 15.398438 13.066406 20.441406 10.644531 12.324219 9.363281 22.917969 9.363281 36.46875 0 7.582032 6.144531 13.726563 13.726563 13.726563h51.902344c6.566406 0 11.609374-5.914063 10.464843-12.378906-8.875-50.296875-70.652343-51.007813-42.101562-85.027344 22.054687-26.277344 15.144531-54.234375 9.488281-67.925781-1.433594-3.464844 1.480469-7.164063 5.183594-6.574219zm0 0" fill="#e4e3e1"/><path d="m307.789062 248.109375c8.476563 2.242187 15.835938 2.484375 22-.953125 17.855469-9.964844 26.386719-23.492188 30.386719-32.957031 2.589844-6.121094 2.335938-13.074219-.714843-18.976563-47.082032-91.121094-30.597657-170.164062-2.390626-185.261718-37.730468-19.492188-75.167968 73.863281-17.609374 185.261718 3.050781 5.902344 3.300781 12.855469.714843 18.976563-7.734375 18.296875-23.808593 30.328125-32.386719 33.910156zm0 0" fill="#d1d0cf"/><path d="m137.636719 465.617188c-14.40625-15.898438-37.597657-44.933594-45.515625-74.625-11.800782-44.257813-15.285156-117.503907 69.335937-160.0625 13.488281-6.785157 26.421875-10.246094 38.746094-11.417969-18.101563-1.652344-37.75.855469-58.746094 11.417969-84.621093 42.558593-81.136719 115.804687-69.335937 160.0625 7.917968 29.691406 31.109375 58.726562 45.515625 74.625 7.175781 7.914062 17.351562 12.429687 28.035156 12.429687h20.003906c-10.683593 0-20.863281-4.515625-28.039062-12.429687zm0 0" fill="#d1d0cf"/><path d="m337.214844 71.523438c-2.46875 35.191406 8.292968 69.761718 21.636718 97.359374 7.875 16.285157 22.589844 17.117188 32.464844 6.335938-1.683594-1.605469-2.617187-3.984375-2.199218-6.523438 4.625-28.171874 13.773437-107.023437-19.921876-148.355468 0 0-28.433593.574218-31.980468 51.183594zm0 0" fill="#f45858"/><path d="m385.539062 178.230469c-2.800781-2.65625-5.003906-5.871094-6.683593-9.347657-29.636719-61.292968-27.601563-121.445312-4.648438-141.640624-1.558593-2.394532-3.21875-4.703126-5.011719-6.902344 0 0-28.433593.574218-31.980468 51.183594-2.46875 35.191406 8.296875 69.761718 21.640625 97.359374 7.054687 14.589844 19.363281 16.152344 27.972656 10.277344-.832031-.539062-1.289063-.929687-1.289063-.929687zm0 0" fill="#dd4040"/><path d="m440.261719 232.054688c0 5.878906-4.769531 10.644531-10.648438 10.644531-5.878906 0-10.644531-4.765625-10.644531-10.644531 0-5.878907 4.765625-10.648438 10.644531-10.648438 5.878907 0 10.648438 4.769531 10.648438 10.648438zm0 0" fill="#525468"/><path d="m83.9375 434.367188c9.628906 15.121093 20.4375 28.039062 28.0625 36.453124 8.578125 9.46875 20.824219 14.894532 33.59375 14.894532h50.460938c4.144531 0 7.5-3.355469 7.5-7.5 0-4.140625-3.355469-7.5-7.5-7.5h-50.460938c-8.542969 0-16.738281-3.632813-22.480469-9.964844-37.804687-41.714844-47.167969-71.804688-49.253906-103.816406-.039063-.585938-.160156-1.148438-.328125-1.695313-2.703125-41.351562 11.285156-87.296875 71.214844-117.441406 76.058594-38.25 132.359375 36.320313 168.617187 16.078125 19.660157-10.972656 29.144531-25.953125 33.640625-36.585938 3.472656-8.207031 3.121094-17.441406-.960937-25.339843-44.230469-85.609375-30.089844-159.195313-6.9375-174.375 5.128906-3.367188 10.433593-3.355469 15.835937-.027344-34.140625 20.09375-33.234375 92.074219-2.917968 154.765625 2.179687 4.511719 4.960937 8.390625 8.273437 11.527344 3.007813 2.851562 7.753906 2.722656 10.605469-.28125 2.851562-3.007813 2.722656-7.757813-.285156-10.605469-1.988282-1.886719-3.703126-4.296875-5.089844-7.167969-31.527344-65.199218-25.175782-127.652344.472656-136.972656 9.960938 13.953125 16.328125 33.328125 18.929688 57.71875.4375 4.117188 4.144531 7.09375 8.253906 6.660156 4.117187-.4375 7.101562-4.132812 6.664062-8.25-3.144531-29.476562-11.527344-52.746094-24.917968-69.171875-13.183594-16.171875-29.648438-20.183593-44.050782-10.742187-31.769531 20.835937-44.925781 103.296875 1.839844 193.804687 2.027344 3.925781 2.199219 8.523438.46875 12.613281-3.578125 8.46875-11.195312 20.433594-27.136719 29.328126-8.640625 4.824218-23.980469-1.785157-41.742187-9.441407-31.839844-13.722656-75.441406-32.515625-126.300782-6.9375-64.15625 32.269531-79.96875 81.578125-79.636718 123.046875-2.660156-.433594-5.359375-.664062-8.089844-.664062-27.722656 0-50.28125 22.558594-50.28125 50.285156 0 27.722656 22.558594 50.28125 50.28125 50.28125 12.527344 0 24.503906-4.730469 33.65625-12.976562zm-68.9375-37.304688c0-19.457031 15.828125-35.28125 35.28125-35.28125 3.042969 0 6.035156.386719 8.945312 1.148438 2.128907 21.089843 7.242188 39.960937 16.894532 58.136718-6.636719 7.128906-16.003906 11.273438-25.839844 11.273438-19.453125 0-35.28125-15.824219-35.28125-35.277344zm0 0"/><path d="m447.679688 232.222656c0-10.007812-8.140626-18.148437-18.144532-18.148437-10.007812 0-18.148437 8.140625-18.148437 18.148437 0 10.007813 8.140625 18.148438 18.148437 18.148438 10.003906 0 18.144532-8.140625 18.144532-18.148438zm-21.292969 0c0-1.734375 1.414062-3.144531 3.148437-3.144531s3.144532 1.410156 3.144532 3.144531-1.410157 3.144532-3.144532 3.144532-3.148437-1.410157-3.148437-3.144532zm0 0"/><path d="m467.195312 203.5c-21.5625-33.371094-53.460937-35.410156-70.722656-33.609375 1.847656-11.296875 4.144532-28.902344 4.667969-48.957031.109375-4.140625-3.160156-7.585938-7.300781-7.691406-.066406-.003907-.132813-.003907-.199219-.003907-4.050781 0-7.386719 3.230469-7.496094 7.304688-.503906 19.316406-2.730469 36.28125-4.507812 47.105469-1.589844 9.671874 6.453125 18.226562 16.207031 17.183593 13.773438-1.476562 39.457031.042969 56.75 26.808594 12.113281 18.75 24.941406 29.359375 33.429688 36.382813 3.640624 3.011718 8.628906 7.140624 8.976562 8.644531-.179688 3.203125-20.335938 22.371093-34.40625 31.082031-8.792969-.9375-16.636719-6.660156-16.722656-6.722656-3.308594-2.46875-7.996094-1.792969-10.480469 1.511718-2.484375 3.3125-1.816406 8.015626 1.496094 10.5.214843.164063 2.472656 1.832032 6.0625 3.75-10 3.042969-21.074219 4.105469-33.535157 2.113282-9.472656-1.5-16.96875 7.972656-13.300781 16.851562 5.207031 12.597656 11.054688 37.179688-8.296875 60.234375-20.589844 24.53125-2.324218 38.621094 10.863282 49.375 12.167968 9.925781 25.957031 21.171875 29.597656 41.777344.324218 1.859375-1.164063 3.574219-3.082032 3.574219h-51.902343c-3.433594 0-6.226563-2.792969-6.226563-6.226563v-12.15625c0-10.835937-4.007812-21.25-11.292968-29.332031-13.96875-15.503906-19.433594-36.714844-19.433594-57.878906 0-4.144532-3.355469-7.5-7.5-7.5-4.140625 0-7.5 3.355468-7.5 7.5 0 17.140625 3.082031 31.019531 7.476562 42.101562-3.542968 5.425782-14.910156 18.113282-43.789062 18.113282-39.925782 0-43.503906.808593-52.597656-2.753907-10.277344-4.03125-11.464844-10.390625-11.464844-14.824219 0-4.832031 6.792968-10.71875 13.984375-16.945312 17.339843-15.019531 43.539062-37.714844 7.132812-81.179688-2.660156-3.175781-7.390625-3.59375-10.566406-.933593-3.175781 2.660156-3.59375 7.390625-.933594 10.566406 26.933594 32.15625 11.925781 45.152344-5.453125 60.207031-9.421875 8.160156-19.164062 16.597656-19.164062 28.285156 0 25.410157 26.078125 32.421876 39.953125 32.578126h39.109375c19 0 28.9375 17.402343 28.9375 26.730468 0 1.835938-.382813 2.996094-.714844 3.429688-.042969.054687-.167969.21875-.949219.21875h-81.246093c-4.140626 0-7.5 3.359375-7.5 7.5 0 4.144531 3.359374 7.5 7.5 7.5h81.246093c9.445313 0 16.667969-6.953125 16.667969-18.644532 0-9.9375-5.320312-22.449218-15.34375-31.171874 10.617188-3.710938 17.820312-9.171876 22.542969-14.097657 2.789062 4.441407 5.695312 8.171875 8.460937 11.242188 4.796875 5.320312 7.4375 12.171875 7.4375 19.289062v12.15625c0 11.703125 9.519532 21.226563 21.226563 21.226563h51.902343c11.257813 0 19.796876-10.152344 17.851563-21.179688-4.605469-26.101562-22.105469-40.375-34.886719-50.796875-15.121094-12.335937-19.035156-15.976562-8.855468-28.105469 22.367187-26.652343 18.179687-54.671874 12.324218-71.296874 45.453125 5.074218 75.039063-24.527344 91.175782-40.664063 4.453124-4.453125 9.519531-10.484375 9.179687-17.691406-.742187-15.75-23.351563-19.300781-44.789063-52.480469zm0 0"/></svg>