<?xml version="1.0" encoding="iso-8859-1"?>
<!-- Generator: Adobe Illustrator 19.0.0, SVG Export Plug-In . SVG Version: 6.00 Build 0)  -->
<svg version="1.1" id="Capa_1" xmlns="http://www.w3.org/2000/svg" xmlns:xlink="http://www.w3.org/1999/xlink" x="0px" y="0px"
	 viewBox="0 0 512.001 512.001" style="enable-background:new 0 0 512.001 512.001;" xml:space="preserve">
<g>
	<g>
		<circle cx="186.332" cy="350.129" r="15.943"/>
	</g>
</g>
<g>
	<g>
		<circle cx="320.313" cy="350.129" r="15.943"/>
	</g>
</g>
<g>
	<g>
		<path d="M422.354,15.244c-8.353-9.356-19.366-14.606-31.849-15.185c-20.452-0.938-42.596,10.169-55.127,27.683
			c-45.348,57.096-56.697,148.688-59.512,188.23c-13.109-1.487-26.551-1.671-39.767-0.528
			c-6.233-87.424-29.763-140.022-43.321-163.701c-2.06-3.594-6.642-4.839-10.233-2.781c-3.594,2.058-4.839,6.64-2.782,10.233
			c13.051,22.79,35.803,73.857,41.549,159.826c0.228,3.401,1.786,6.487,4.386,8.689c2.57,2.175,5.968,3.231,9.32,2.897
			c13.783-1.373,27.931-1.178,41.594,0.561c3.404,0.432,6.88-0.57,9.528-2.753c2.644-2.179,4.287-5.389,4.511-8.809
			c2.402-36.577,12.724-127.596,56.587-182.679c0.085-0.107,0.168-0.217,0.247-0.329c9.674-13.618,26.684-22.282,42.329-21.557
			c8.484,0.393,15.669,3.821,21.356,10.19c8.551,9.578,13.205,25.355,12.145,41.176c-4.642,69.337-57.357,142.868-79.805,171.265
			c-2.188,2.768-3.103,6.347-2.511,9.824c0.596,3.495,2.659,6.589,5.662,8.491c13.063,8.271,24.505,18.173,34.009,29.432
			c1.483,1.758,3.602,2.663,5.734,2.663c1.708,0,3.425-0.581,4.833-1.769c3.165-2.672,3.564-7.403,0.894-10.567
			c-9.927-11.761-21.74-22.162-35.145-30.947c13.183-16.858,31.588-42.512,47.602-72.522c20.236-37.92,31.571-73.202,33.691-104.865
			C439.596,47.71,433.496,27.721,422.354,15.244z"/>
	</g>
</g>
<g>
	<g>
		<path d="M419.408,325.26c-1.209-3.962-5.403-6.19-9.362-4.983c-3.961,1.209-6.192,5.4-4.982,9.362
			c3.342,10.945,5.035,22.288,5.035,33.712c0,73.696-70.329,133.652-156.774,133.652S96.552,437.047,96.552,363.351
			c0-43.466,24.965-84.374,66.78-109.428c3.086-1.848,5.231-4.931,5.888-8.459c0.654-3.516-0.235-7.151-2.44-9.974
			C103.24,154.208,90.579,94.666,88.687,66.407c-1.06-15.821,3.595-31.598,12.145-41.176c5.687-6.369,12.872-9.798,21.356-10.19
			c8.149-0.376,17.045,1.868,25.064,6.32c3.621,2.01,8.187,0.705,10.195-2.917c2.011-3.62,0.705-8.186-2.916-10.196
			c-10.569-5.869-21.99-8.698-33.038-8.19c-12.483,0.578-23.497,5.829-31.849,15.185C78.506,27.721,72.404,47.71,73.722,67.409
			c2.08,31.068,13.041,65.644,32.579,102.769c15.675,29.782,33.868,55.428,46.939,72.334
			c-44.942,27.913-71.686,72.894-71.686,120.839c0,81.966,77.056,148.65,171.771,148.65s171.772-66.684,171.772-148.65
			C425.097,350.441,423.183,337.626,419.408,325.26z"/>
	</g>
</g>
<g>
	<g>
		<path d="M390.933,65.615c-4.599-5.125-10.67-7.876-17.557-7.954c-0.106-0.001-0.212-0.002-0.319-0.002
			c-11.207,0-22.944,6.676-30.028,17.093c-25.406,34.085-31.955,87.155-33.592,108.412c-0.518,6.715,3.355,12.863,9.638,15.297
			l14.613,5.661c1.811,0.702,3.68,1.041,5.524,1.041c4.557,0,8.956-2.069,11.904-5.849c13.131-16.835,44.118-60.565,48.242-102.922
			C400.534,84.312,397.384,72.806,390.933,65.615z M384.43,94.94c-3.847,39.522-35.524,82.822-45.14,95.151
			c-0.044,0.056-0.113,0.076-0.185,0.048l-14.611-5.661c-0.069-0.027-0.108-0.088-0.104-0.161
			c1.203-15.591,6.968-68.927,30.757-100.725c0.074-0.1,0.146-0.202,0.216-0.305c4.226-6.278,11.479-10.629,17.693-10.629
			c0.051,0,0.101,0,0.15,0.001c2.686,0.03,4.77,0.975,6.563,2.973C383.298,79.564,385.171,87.324,384.43,94.94z"/>
	</g>
</g>
<g>
	<g>
		<path d="M202.232,183.163c-1.639-21.259-8.189-74.331-33.593-108.412c-7.085-10.417-18.819-17.093-30.027-17.093
			c-0.104,0.001-0.211,0.002-0.318,0.003c-6.888,0.078-12.959,2.829-17.558,7.955c-6.45,7.19-9.601,18.696-8.425,30.776
			c4.123,42.357,35.111,86.087,48.243,102.923c2.95,3.779,7.349,5.848,11.904,5.848c1.845,0,3.714-0.339,5.524-1.041l14.61-5.661
			C198.874,196.027,202.747,189.88,202.232,183.163z M187.177,184.477l-14.611,5.661c-0.067,0.028-0.141,0.008-0.185-0.048
			c-9.617-12.329-41.294-55.628-45.14-95.151c-0.741-7.615,1.132-15.375,4.661-19.308c1.792-1.999,3.877-2.943,6.563-2.974
			c0.051,0,0.1-0.001,0.15-0.001c6.213,0,13.467,4.352,17.692,10.629c0.069,0.104,0.142,0.206,0.216,0.305
			c23.786,31.795,29.556,85.134,30.757,100.723C187.286,184.387,187.247,184.449,187.177,184.477z"/>
	</g>
</g>
<g>
	<g>
		<path d="M280.967,428.474c-6.348,0-11.246-1.683-14.561-5c-2.993-2.996-4.375-6.912-5.02-9.895
			c8.848-3.191,15.258-11.114,18.539-16.052c0.275-0.414,0.574-0.845,0.882-1.29c2.408-3.479,5.704-8.242,5.442-14.11
			c-0.356-7.995-7.362-10.818-13.177-11.779c-6.172-1.021-12.127-1.555-17.745-1.588h-4.051c-5.574,0.033-11.529,0.567-17.7,1.588
			c-10.535,1.741-12.981,7.367-13.178,11.78c-0.262,5.868,3.035,10.631,5.442,14.11c0.308,0.445,0.606,0.875,0.883,1.292
			c4.908,7.384,11.478,12.942,18.598,15.775c-0.618,3.014-1.997,7.082-5.079,10.169c-3.312,3.318-8.211,4.999-14.559,4.999
			c-4.142,0-7.499,3.357-7.499,7.499c0,4.141,3.357,7.499,7.499,7.499c10.561,0,19.081-3.214,25.322-9.551
			c0.846-0.859,1.615-1.746,2.321-2.649c0.707,0.903,1.475,1.79,2.321,2.649c6.24,6.337,14.76,9.551,25.321,9.551
			c4.142,0,7.499-3.357,7.499-7.499C288.466,431.831,285.11,428.474,280.967,428.474z M254.545,399.929
			C254.544,399.929,254.544,399.929,254.545,399.929c-1.059,0.139-2.078,0.028-3.114-0.341c-4.503-1.605-8.842-5.284-12.215-10.359
			c-0.325-0.49-0.678-1-1.042-1.526c-0.479-0.693-1.167-1.686-1.74-2.625c5.246-0.848,10.266-1.292,14.888-1.319h3.963
			c4.663,0.027,9.684,0.471,14.929,1.319c-0.572,0.943-1.259,1.934-1.737,2.626c-0.364,0.526-0.717,1.037-1.041,1.524
			C263.393,395.311,258.454,399.412,254.545,399.929z"/>
	</g>
</g>
<g>
</g>
<g>
</g>
<g>
</g>
<g>
</g>
<g>
</g>
<g>
</g>
<g>
</g>
<g>
</g>
<g>
</g>
<g>
</g>
<g>
</g>
<g>
</g>
<g>
</g>
<g>
</g>
<g>
</g>
</svg>
