<?xml version="1.0" encoding="iso-8859-1"?>
<!-- Generator: Adobe Illustrator 19.0.0, SVG Export Plug-In . SVG Version: 6.00 Build 0)  -->
<svg version="1.1" id="Capa_1" xmlns="http://www.w3.org/2000/svg" xmlns:xlink="http://www.w3.org/1999/xlink" x="0px" y="0px"
	 viewBox="0 0 512.001 512.001" style="enable-background:new 0 0 512.001 512.001;" xml:space="preserve">
<path style="fill:#E9EFF4;" d="M390.158,7.55c-18.63-0.862-38.01,9.531-48.789,24.706c-44.69,56.123-55.56,146.606-58.202,186.859
	c-0.189,2.872-2.757,4.976-5.611,4.613c-7.908-1.006-15.998-1.529-24.23-1.529c-6.445,0-12.801,0.323-19.051,0.945
	c-2.809,0.28-5.293-1.808-5.481-4.623c-2.71-40.536-13.686-130.413-58.162-186.265C159.852,17.081,140.472,6.688,121.843,7.55
	C92.039,8.93,79.451,40.713,81.205,66.908c4.596,68.65,53.47,139.69,79.666,173.202c1.86,2.379,1.198,5.828-1.392,7.38
	c-42.57,25.505-70.427,67.887-70.427,115.861c0,77.955,73.547,141.151,164.273,141.151s164.273-63.196,164.273-141.151
	c0-46.646-26.337-88.002-66.927-113.701c-2.516-1.593-3.127-4.992-1.28-7.327c25.707-32.517,76.706-105.218,81.405-175.414
	C432.549,40.713,419.961,8.93,390.158,7.55z"/>
<path style="fill:#D3DCE2;" d="M349.386,242.323c-1.84,2.33-1.23,5.729,1.28,7.329c40.594,25.696,66.93,67.05,66.93,113.703
	c0,77.948-73.549,141.149-164.266,141.149c-9.149,0-18.127-0.64-26.866-1.88c77.948-11.018,137.41-69.18,137.41-139.269
	c0-19.185-4.589-38.191-13.117-55.364c-8.748-17.614-22.316-29.871-36.34-42.874c-14.497-13.424-10.168-33.644-0.253-48.372
	c11.557-17.168,22.682-33.662,32.275-52.159c15.701-30.274,28.337-63.372,30.633-97.679c1.22-18.277-4.539-39.274-18.257-50.772
	c9.489-5.809,20.537-9.089,31.345-8.589c29.796,1.38,42.394,33.165,40.634,59.361C426.095,137.109,375.102,209.808,349.386,242.323z
	"/>
<path style="fill:#F79B77;" d="M349.143,79.099c5.519-8.2,15.123-14.042,24.149-13.94c14.44,0.163,19.95,16.672,18.603,30.506
	c-4.013,41.227-35.875,85.168-46.691,99.036c-2.08,2.666-5.654,3.65-8.807,2.429l-7.15-2.771l-0.311-0.121l-7.15-2.771
	c-3.153-1.222-5.13-4.357-4.871-7.729C318.266,166.205,324.33,112.266,349.143,79.099z"/>
<path style="fill:#F28361;" d="M391.9,95.665c-4.019,41.224-35.875,85.167-46.693,99.035c-2.08,2.67-5.659,3.649-8.809,2.43
	l-7.149-2.77l-1.55-0.6c11.448-14.828,42.034-57.761,45.963-98.095c1.06-10.858-2.11-23.367-10.498-28.306
	c3.29-1.44,6.749-2.24,10.129-2.2C387.731,65.319,393.24,81.827,391.9,95.665z"/>
<path style="fill:#F79B77;" d="M162.529,79.099c-5.518-8.2-15.123-14.042-24.149-13.94c-14.44,0.163-19.95,16.672-18.603,30.506
	c4.013,41.227,35.875,85.168,46.691,99.036c2.08,2.666,5.654,3.65,8.807,2.429l7.15-2.771l0.311-0.121l7.15-2.771
	c3.153-1.222,5.13-4.357,4.871-7.729C193.406,166.205,187.342,112.266,162.529,79.099z"/>
<path style="fill:#F28361;" d="M194.759,183.742c0.26,3.369-1.72,6.509-4.869,7.729l-7.159,2.77l-0.31,0.12l-2.15,0.83
	c0.02-0.31,0.01-0.63-0.01-0.95c-1.35-17.537-7.419-71.479-32.235-104.644c-5.509-8.199-15.118-14.038-24.146-13.938
	c-0.32,0-0.63,0.01-0.93,0.04c2.99-6.099,8.039-10.458,15.428-10.538c9.029-0.1,18.637,5.739,24.146,13.938
	C187.34,112.262,193.409,166.204,194.759,183.742z"/>
<path style="fill:#725151;" d="M255.526,407.362c7.579-1.002,14.124-7.921,18.154-13.984c2.042-3.074,5.254-6.996,5.079-10.916
	c-0.151-3.392-4.233-4.273-6.909-4.715c-5.383-0.89-10.981-1.454-16.522-1.487h-4.006c-5.54,0.033-11.139,0.597-16.522,1.487
	c-2.676,0.442-6.758,1.324-6.909,4.715c-0.175,3.92,3.038,7.842,5.079,10.916c3.842,5.78,9.318,10.912,15.944,13.273
	C251.178,407.458,253.394,407.645,255.526,407.362z"/>
<path style="fill:#633B3B;" d="M278.757,382.462c0.18,3.919-3.03,7.839-5.079,10.918c-4.029,6.059-10.568,12.978-18.147,13.978
	c-2.14,0.29-4.349,0.1-6.619-0.71c-0.34-0.12-0.67-0.25-1-0.38c5.859-2.39,10.848-7.929,14.148-12.888
	c2.04-3.08,5.259-6.999,5.079-10.918c-0.15-3.39-4.229-4.269-6.909-4.719c-4.149-0.69-8.429-1.18-12.708-1.37
	c1.27-0.07,2.53-0.1,3.799-0.11h4.009c5.539,0.03,11.138,0.59,16.518,1.48C274.527,378.193,278.607,379.073,278.757,382.462z"/>
<circle cx="186.332" cy="350.129" r="15.943"/>
<circle cx="320.313" cy="350.129" r="15.943"/>
<path d="M422.354,15.244c-8.353-9.356-19.366-14.606-31.849-15.185c-20.452-0.938-42.596,10.169-55.127,27.683
	c-45.348,57.096-56.697,148.688-59.512,188.23c-13.109-1.487-26.551-1.671-39.767-0.528
	c-6.233-87.424-29.763-140.022-43.321-163.701c-2.06-3.594-6.642-4.839-10.233-2.781c-3.594,2.058-4.839,6.64-2.782,10.233
	c13.051,22.79,35.803,73.857,41.549,159.826c0.228,3.401,1.786,6.487,4.386,8.689c2.57,2.175,5.968,3.231,9.32,2.897
	c13.783-1.373,27.931-1.178,41.594,0.561c3.404,0.432,6.88-0.57,9.528-2.753c2.644-2.179,4.287-5.389,4.511-8.809
	c2.402-36.577,12.724-127.596,56.587-182.679c0.085-0.107,0.168-0.217,0.247-0.329c9.674-13.618,26.684-22.282,42.329-21.557
	c8.484,0.393,15.669,3.821,21.356,10.19c8.551,9.578,13.205,25.355,12.145,41.176c-4.642,69.337-57.356,142.868-79.805,171.265
	c-2.188,2.768-3.103,6.347-2.511,9.824c0.596,3.494,2.659,6.589,5.662,8.491c13.063,8.271,24.505,18.173,34.009,29.432
	c1.483,1.758,3.602,2.663,5.734,2.663c1.708,0,3.426-0.581,4.833-1.769c3.165-2.672,3.564-7.403,0.894-10.567
	c-9.928-11.761-21.74-22.162-35.145-30.947c13.183-16.858,31.588-42.512,47.602-72.522c20.236-37.92,31.571-73.202,33.691-104.865
	C439.596,47.71,433.496,27.721,422.354,15.244z"/>
<path d="M410.046,320.277c-3.961,1.209-6.192,5.4-4.982,9.362c3.341,10.945,5.035,22.288,5.035,33.712
	c0,73.696-70.329,133.652-156.774,133.652S96.552,437.047,96.552,363.351c0-43.467,24.965-84.374,66.78-109.428
	c3.086-1.848,5.231-4.931,5.888-8.459c0.654-3.516-0.235-7.151-2.44-9.974C103.24,154.208,90.579,94.666,88.687,66.407
	c-1.06-15.821,3.595-31.598,12.145-41.176c5.687-6.369,12.872-9.798,21.356-10.19c8.149-0.376,17.045,1.868,25.064,6.32
	c3.621,2.01,8.187,0.705,10.195-2.917c2.011-3.62,0.705-8.186-2.916-10.196c-10.569-5.869-21.99-8.698-33.038-8.19
	c-12.483,0.578-23.498,5.829-31.849,15.185C78.505,27.721,72.404,47.71,73.722,67.409c2.08,31.068,13.041,65.644,32.579,102.769
	c15.675,29.782,33.868,55.428,46.939,72.334c-44.942,27.913-71.686,72.894-71.686,120.839c0,81.966,77.056,148.65,171.771,148.65
	s171.771-66.684,171.771-148.65c0-12.91-1.914-25.725-5.689-38.091C418.199,321.297,414.005,319.07,410.046,320.277z"/>
<path d="M333.688,204.123c1.811,0.702,3.68,1.041,5.524,1.041c4.557,0,8.956-2.069,11.904-5.849
	c13.131-16.835,44.118-60.565,48.242-102.922c1.176-12.081-1.974-23.586-8.425-30.777c-4.599-5.125-10.67-7.876-17.557-7.954
	c-0.106-0.001-0.212-0.002-0.319-0.002c-11.207,0-22.944,6.676-30.028,17.093c-25.406,34.085-31.955,87.155-33.592,108.412
	c-0.518,6.715,3.354,12.863,9.638,15.297L333.688,204.123z M355.147,83.592c0.074-0.1,0.146-0.202,0.216-0.305
	c4.226-6.278,11.479-10.629,17.693-10.629c0.051,0,0.101,0,0.15,0.001c2.686,0.03,4.77,0.975,6.563,2.973
	c3.528,3.933,5.401,11.693,4.66,19.309c-3.847,39.522-35.524,82.822-45.14,95.151c-0.044,0.056-0.113,0.076-0.185,0.048
	l-14.611-5.661c-0.069-0.027-0.108-0.088-0.104-0.161C325.593,168.726,331.358,115.39,355.147,83.592z"/>
<path d="M138.295,57.661c-6.888,0.078-12.959,2.829-17.558,7.955c-6.45,7.19-9.601,18.696-8.425,30.776
	c4.123,42.357,35.111,86.087,48.243,102.923c2.95,3.779,7.349,5.848,11.904,5.848c1.845,0,3.714-0.339,5.524-1.041l14.61-5.661
	c6.281-2.434,10.154-8.581,9.64-15.298c-1.639-21.259-8.189-74.331-33.593-108.412c-7.085-10.417-18.819-17.093-30.027-17.093
	C138.509,57.659,138.402,57.66,138.295,57.661z M156.308,83.286c0.069,0.104,0.142,0.206,0.216,0.305
	c23.786,31.795,29.556,85.134,30.757,100.723c0.005,0.073-0.034,0.135-0.104,0.163l-14.611,5.661
	c-0.067,0.028-0.141,0.008-0.185-0.048c-9.617-12.329-41.294-55.628-45.14-95.151c-0.741-7.615,1.132-15.375,4.661-19.308
	c1.792-1.999,3.877-2.943,6.563-2.974c0.051,0,0.1-0.001,0.15-0.001C144.829,72.656,152.083,77.009,156.308,83.286z"/>
<path d="M225.683,428.474c-4.142,0-7.499,3.358-7.499,7.499c0,4.141,3.357,7.499,7.499,7.499c10.561,0,19.081-3.214,25.322-9.551
	c0.846-0.859,1.615-1.746,2.321-2.649c0.707,0.903,1.475,1.79,2.321,2.649c6.24,6.337,14.76,9.551,25.321,9.551
	c4.142,0,7.499-3.358,7.499-7.499c0-4.141-3.357-7.499-7.499-7.499c-6.348,0-11.246-1.683-14.561-5
	c-2.993-2.996-4.375-6.912-5.02-9.895c8.848-3.191,15.258-11.114,18.539-16.052c0.275-0.414,0.574-0.845,0.882-1.29
	c2.408-3.478,5.704-8.242,5.442-14.11c-0.356-7.995-7.362-10.818-13.177-11.779c-6.172-1.021-12.127-1.555-17.745-1.588h-4.051
	c-5.574,0.033-11.529,0.567-17.7,1.588c-10.535,1.741-12.981,7.367-13.178,11.78c-0.262,5.868,3.035,10.631,5.442,14.11
	c0.308,0.445,0.606,0.875,0.883,1.292c4.908,7.384,11.478,12.942,18.598,15.775c-0.618,3.014-1.997,7.082-5.079,10.169
	C236.93,426.792,232.031,428.474,225.683,428.474z M239.217,389.228c-0.325-0.49-0.678-1-1.042-1.526
	c-0.479-0.693-1.167-1.686-1.74-2.625c5.246-0.848,10.266-1.292,14.888-1.319h3.963c4.663,0.027,9.684,0.471,14.929,1.319
	c-0.572,0.943-1.259,1.934-1.737,2.626c-0.364,0.526-0.717,1.037-1.041,1.524c-4.044,6.084-8.984,10.184-12.892,10.701
	c-0.001,0-0.001,0-0.001,0c-1.058,0.139-2.077,0.028-3.113-0.341C246.928,397.983,242.59,394.304,239.217,389.228z"/>
<g>
</g>
<g>
</g>
<g>
</g>
<g>
</g>
<g>
</g>
<g>
</g>
<g>
</g>
<g>
</g>
<g>
</g>
<g>
</g>
<g>
</g>
<g>
</g>
<g>
</g>
<g>
</g>
<g>
</g>
</svg>
