<svg height="496pt" viewBox="0 0 496 496" width="496pt" xmlns="http://www.w3.org/2000/svg"><path d="m208 272c0 4.417969-3.582031 8-8 8s-8-3.582031-8-8 3.582031-8 8-8 8 3.582031 8 8zm0 0"/><path d="m304 272c0 4.417969-3.582031 8-8 8s-8-3.582031-8-8 3.582031-8 8-8 8 3.582031 8 8zm0 0"/><path d="m392 86.28125v-62.28125c0-13.230469-10.769531-24-24-24h-240c-13.230469 0-24 10.769531-24 24v62.28125c-62.894531 45.03125-104 118.640625-104 201.71875v192c0 8.824219 7.175781 16 16 16h464c8.824219 0 16-7.175781 16-16v-192c0-83.078125-41.105469-156.6875-104-201.71875zm-272-62.28125c0-4.40625 3.585938-8 8-8h240c4.414062 0 8 3.59375 8 8v51.664062c-37.390625-22.625-81.199219-35.664062-128-35.664062s-90.609375 13.039062-128 35.664062zm128 32c127.921875 0 232 104.070312 232 232l.015625 160h-16.015625v-160c0-119.105469-96.894531-216-216-216s-216 96.894531-216 216v160h-16v-160c0-127.929688 104.078125-232 232-232zm96 384v-8h-16v8c0 4.414062-3.585938 8-8 8s-8-3.585938-8-8v-8h-16v8c0 4.414062-3.585938 8-8 8s-8-3.585938-8-8c0-13.230469 10.769531-24 24-24h32c13.230469 0 24 10.769531 24 24 0 4.414062-3.585938 8-8 8s-8-3.585938-8-8zm-144 0v-8h-16v8c0 4.414062-3.585938 8-8 8s-8-3.585938-8-8v-8h-16v8c0 4.414062-3.585938 8-8 8s-8-3.585938-8-8c0-13.230469 10.769531-24 24-24h32c13.230469 0 24 10.769531 24 24 0 4.414062-3.585938 8-8 8s-8-3.585938-8-8zm151.761719-123c5.308593 7.078125 8.238281 15.839844 8.238281 24.703125 0 .183594-.03125.351563-.03125.535156-15.570312-3.644531-31.503906-5.628906-47.472656-6.054687-2.128906-4.289063-4.648438-8.328125-7.550782-12.078125l2.398438-1.378907c11.671875-6.671874 23.96875-12.117187 36.65625-16.335937v.28125zm-215.761719 24.703125c0-8.855469 2.929688-17.625 8.238281-24.703125l7.761719-10.328125v-.28125c12.6875 4.21875 24.984375 9.664063 36.65625 16.335937l2.398438 1.378907c-2.902344 3.75-5.421876 7.789062-7.550782 12.078125-15.96875.425781-31.902344 2.417968-47.472656 6.054687 0-.183593-.03125-.359375-.03125-.535156zm41.761719 10.648437c-1.121094 5.039063-1.761719 10.273438-1.761719 15.648438 0 8.128906 1.414062 16.128906 4.054688 23.695312-5.320313-2.695312-10.542969-5.632812-15.558594-8.976562l-10.175782-6.789062c-6.761718-4.503907-11.855468-10.824219-14.953124-18.050782 12.609374-2.96875 25.472656-4.816406 38.394531-5.527344zm25.335937 48.769532c-7.066406-9.585938-11.097656-21.144532-11.097656-33.121094 0-20.542969 11.160156-38.496094 27.695312-48.238281l.664063 2.644531c2.496094 10.019531 10.121094 17.578125 19.640625 20.363281v25.230469c0 4.414062-3.585938 8-8 8s-8-3.585938-8-8h-16c0 13.230469 10.769531 24 24 24 6.167969 0 11.742188-2.40625 16-6.238281 4.257812 3.839843 9.832031 6.238281 16 6.238281 13.230469 0 24-10.769531 24-24h-16c0 4.414062-3.585938 8-8 8s-8-3.585938-8-8v-25.222656c9.519531-2.785156 17.144531-10.34375 19.640625-20.363282l.664063-2.644531c16.535156 9.734375 27.695312 27.6875 27.695312 48.230469 0 12.089844-3.871094 23.433594-10.984375 33.078125-14.472656 4.546875-29.609375 6.921875-45.015625 6.921875-15.367188 0-30.472656-2.359375-44.902344-6.878906zm44.902344-73.121094c-5.742188 0-10.726562-3.886719-12.128906-9.464844l-1.214844-4.863281c4.289062-1.046875 8.734375-1.671875 13.34375-1.671875s9.054688.625 13.34375 1.671875l-1.214844 4.863281c-1.402344 5.578125-6.386718 9.464844-12.128906 9.464844zm67.976562 63.679688c2.640626-7.574219 4.023438-15.589844 4.023438-23.679688 0-5.375-.640625-10.609375-1.761719-15.648438 12.921875.710938 25.792969 2.558594 38.394531 5.527344-3.097656 7.234375-8.191406 13.554688-14.953124 18.050782l-10.175782 6.789062c-5.007812 3.335938-10.214844 6.265625-15.527344 8.960938zm-16.570312-82.847657-5.933594 3.398438c-12.410156-10.132813-28.242187-16.230469-45.472656-16.230469s-33.0625 6.097656-45.472656 16.230469l-5.933594-3.398438c-14.128906-8.070312-29.121094-14.40625-44.59375-19.144531v-9.6875c0-38.648438 23.007812-71.953125 56-87.160156v47.160156h16v-52.839844c5.183594-1.34375 10.519531-2.296875 16-2.753906v55.59375h16v-55.59375c5.480469.457031 10.816406 1.410156 16 2.753906v52.839844h16v-47.160156c32.992188 15.207031 56 48.511718 56 87.160156v9.695312c-15.472656 4.730469-30.464844 11.066407-44.59375 19.136719zm-125.589844-112.511719c-18.144531-13.128906-38.761718-23.03125-60.335937-29.054687-.632813-4.699219-1.089844-9.425781-1.3125-14.1875l4.007812.496094c27.566407 3.449219 53.800781 13.464843 76.59375 29.105469-6.808593 3.886718-13.136719 8.472656-18.953125 13.640624zm-11.367187 11.550782c-8.351563 9.890625-14.9375 21.257812-19.488281 33.625-12.234376-17.039063-20.976563-36.238282-26-56.457032 16.152343 5.34375 31.574218 13.066407 45.488281 22.832032zm221.382812-54.792969c-.222656 4.753906-.679687 9.480469-1.3125 14.1875-21.574219 6.023437-42.183593 15.925781-60.335937 29.054687-5.824219-5.167968-12.152344-9.753906-18.953125-13.632812 22.792969-15.648438 49.027343-25.65625 76.59375-29.101562zm-50.28125 54.792969c13.914063-9.765625 29.335938-17.488282 45.480469-22.832032-5.015625 20.226563-13.765625 39.425782-26 56.457032-4.542969-12.359375-11.128906-23.734375-19.480469-33.625zm44.28125-70.167969c-33.199219 4.152344-64.59375 17.082031-91.167969 37.3125-12.070312-4.457031-25.054687-7.015625-38.664062-7.015625s-26.59375 2.558594-38.664062 7.023438c-26.574219-20.230469-57.96875-33.167969-91.167969-37.3125l-1.664063-.207032c35.183594-30.785156 81.183594-49.503906 131.496094-49.503906s96.3125 18.71875 131.496094 49.496094zm-281.304687 19.914063c2.550781 37.789062 16.886718 74.101562 41.207031 103.359374-1.0625 6.199219-1.734375 12.527344-1.734375 19.023438v5.457031c-15.710938-3.535156-31.800781-5.457031-48-5.457031v16c16.105469 0 32.097656 2.023438 47.65625 5.785156l-4.207031 5.605469c-7.386719 9.824219-11.449219 22.015625-11.449219 34.3125 0 1.632813.167969 3.234375.296875 4.839844-12.328125 3.792969-24.351563 8.546875-35.882813 14.304687l7.160157 14.3125c10.363281-5.183594 21.167969-9.457031 32.234375-12.9375 4.175781 10.875 11.640625 20.363282 21.640625 27.023438l10.175781 6.792968c2.109375 1.402344 4.296875 2.65625 6.453125 3.960938h-2.078125c-22.054688 0-40 17.945312-40 40 0 2.816406.574219 5.488281 1.472656 8h-73.472656v-160c0-49.785156 18.328125-95.34375 48.527344-130.382812zm131.367187 265.070312c6.648438.800781 13.34375 1.3125 20.105469 1.3125s13.457031-.511719 20.105469-1.3125c-2.554688 5.265625-4.105469 11.089844-4.105469 17.3125 0 2.816406.574219 5.488281 1.472656 8h-34.953125c.90625-2.511719 1.480469-5.183594 1.480469-8 0-6.222656-1.550781-12.046875-4.105469-17.3125zm108.105469-22.6875h-2.078125c2.15625-1.304688 4.34375-2.558594 6.453125-3.96875l10.175781-6.792969c10-6.664062 17.457031-16.148437 21.640625-27.023437 11.066406 3.472656 21.863282 7.753906 32.234375 12.9375l7.160157-14.3125c-11.523438-5.761719-23.554688-10.511719-35.882813-14.304688.128906-1.597656.296875-3.199218.296875-4.832031 0-12.296875-4.0625-24.488281-11.449219-34.3125l-4.207031-5.605469c15.558594-3.761718 31.550781-5.785156 47.65625-5.785156v-16c-16.199219 0-32.289062 1.921875-48 5.457031v-5.457031c0-6.496094-.671875-12.824219-1.742188-19.023438 24.316407-29.257812 38.652344-65.570312 41.207032-103.359374 30.207031 35.039062 48.535156 80.597656 48.535156 130.382812v160h-73.472656c.898437-2.511719 1.472656-5.183594 1.472656-8 0-22.054688-17.945312-40-40-40zm-320 80v-16h464.015625v16zm0 0"/></svg>