<?xml version="1.0" encoding="iso-8859-1"?>
<!-- Generator: Adobe Illustrator 18.0.0, SVG Export Plug-In . SVG Version: 6.00 Build 0)  -->
<!DOCTYPE svg PUBLIC "-//W3C//DTD SVG 1.1//EN" "http://www.w3.org/Graphics/SVG/1.1/DTD/svg11.dtd">
<svg version="1.1" id="Capa_1" xmlns="http://www.w3.org/2000/svg" xmlns:xlink="http://www.w3.org/1999/xlink" x="0px" y="0px"
	 viewBox="0 0 496.491 496.491" style="enable-background:new 0 0 496.491 496.491;" xml:space="preserve">
<g>
	<path d="M245.204,326.125c-29.326,0-53.184,22.21-53.184,49.509c0,12.964,7.64,20.704,20.436,20.704
		c5.876,0,12.325-1.494,18.561-2.938c5.161-1.195,10.497-2.432,14.187-2.432c3.213,0,8.283,1.182,13.185,2.325
		c6.421,1.497,13.061,3.045,19.186,3.045c13.033-0.001,20.815-7.74,20.815-20.704C298.389,348.335,274.531,326.125,245.204,326.125z
		 M280.883,378.816c-0.007,0.005-0.727,0.521-3.31,0.521c-4.169,0-9.84-1.322-15.324-2.601c-6.107-1.425-11.877-2.77-17.045-2.77
		c-5.633,0-11.932,1.459-18.023,2.87c-5.305,1.23-10.792,2.5-14.725,2.5c-2.183,0-2.902-0.429-2.913-0.389
		c-0.038-0.059-0.523-0.858-0.523-3.316c0-17.926,16.232-32.509,36.184-32.509c19.953,0,36.185,14.583,36.185,32.509
		C281.389,377.719,281.002,378.666,280.883,378.816z"/>
	<path d="M218.739,309.891c0-14.963-10.379-27.136-23.137-27.136c-12.759,0-23.139,12.173-23.139,27.136
		c0,14.963,10.38,27.136,23.139,27.136C208.36,337.026,218.739,324.853,218.739,309.891z M189.464,309.891
		c0-5.801,3.241-10.136,6.139-10.136c2.897,0,6.137,4.335,6.137,10.136c0,5.801-3.24,10.136-6.137,10.136
		C192.704,320.026,189.464,315.691,189.464,309.891z"/>
	<path d="M246.745,320.245c12.758,0,23.138-12.173,23.138-27.136s-10.38-27.136-23.138-27.136
		c-12.758,0-23.137,12.173-23.137,27.136S233.987,320.245,246.745,320.245z M246.745,282.974c2.898,0,6.138,4.335,6.138,10.136
		c0,5.801-3.24,10.136-6.138,10.136c-2.897,0-6.137-4.335-6.137-10.136C240.608,287.309,243.848,282.974,246.745,282.974z"/>
	<path d="M297.889,282.755c-12.759,0-23.139,12.173-23.139,27.136c0,14.963,10.38,27.136,23.139,27.136s23.139-12.173,23.139-27.136
		C321.028,294.928,310.648,282.755,297.889,282.755z M297.889,320.026c-2.897,0-6.139-4.335-6.139-10.136
		c0-5.801,3.241-10.136,6.139-10.136c2.897,0,6.139,4.335,6.139,10.136C304.028,315.691,300.786,320.026,297.889,320.026z"/>
	<path d="M483.763,169.063L264.798,5.317c-4.651-3.477-10.192-5.316-16.024-5.316l-0.111,0.001C248.61,0.001,248.561,0,248.521,0
		l-0.173,0.003c-0.064-0.002-0.126-0.001-0.189-0.001L247.969,0c-0.04,0-0.089,0.001-0.141,0.002l-0.111-0.001
		c-5.832,0-11.373,1.839-16.024,5.316L12.729,169.064c-11.828,8.845-14.257,25.666-5.413,37.498l18.346,24.532
		c5.033,6.73,13.058,10.746,21.468,10.746c4.271,0,8.391-1.003,12.129-2.913v230.774c0,14.772,12.019,26.79,26.791,26.79h324.392
		c14.772,0,26.791-12.018,26.791-26.79V238.926c3.738,1.911,7.857,2.915,12.129,2.915c0.001,0,0,0,0.001,0
		c8.409,0,16.435-4.019,21.466-10.747l18.347-24.534C498.019,194.73,495.591,177.909,483.763,169.063z M410.442,479.491H86.05
		c-5.399,0-9.791-4.392-9.791-9.79V226.708L248.247,98.095l171.986,128.612v242.994C420.233,475.1,415.84,479.491,410.442,479.491z
		 M475.561,196.38l-18.347,24.533c-1.866,2.496-4.728,3.928-7.853,3.928c-2.119,0-4.142-0.675-5.849-1.952L253.337,80.673
		c-1.509-1.128-3.3-1.692-5.09-1.692s-3.581,0.564-5.09,1.692L52.979,222.89c-1.707,1.276-3.73,1.95-5.849,1.95
		c-3.124,0-5.987-1.432-7.854-3.928l-18.345-24.53c-3.232-4.324-2.345-10.472,1.978-13.704L241.874,18.933
		c1.689-1.264,3.709-1.931,5.934-1.931c0.001,0,0.001,0,0.003,0c0.065,0,0.129,0.001,0.194-0.001l0.173,0.002
		c0.049,0.001,0.1,0.001,0.137,0l0.193-0.002c0.096,0,0.193,0.001,0.266,0c2.133,0,4.154,0.668,5.843,1.932l218.965,163.744
		C477.905,185.91,478.791,192.058,475.561,196.38z"/>
	<path d="M311.179,208.345c-24.104,0-46.524,9.634-62.933,26.746c-16.409-17.112-38.831-26.746-62.933-26.746
		c-48.179,0-87.376,39.196-87.376,87.376c0,22.47,7.983,45.104,23.727,67.277c12.252,17.254,29.241,34.292,50.495,50.642
		c35.829,27.56,71.116,43.561,72.601,44.228c1.107,0.498,2.296,0.748,3.486,0.748c1.047,0,2.097-0.193,3.092-0.582
		c1.49-0.582,36.919-14.563,72.867-41.151c21.33-15.776,38.378-32.738,50.67-50.413c15.713-22.592,23.68-46.395,23.68-70.749
		C398.555,247.541,359.359,208.345,311.179,208.345z M248.465,440.815c-20.799-10.101-133.528-68.413-133.528-145.094
		c0-38.806,31.57-70.376,70.376-70.376c22.243,0,42.71,10.189,56.155,27.956c1.606,2.123,4.115,3.371,6.778,3.371
		s5.171-1.248,6.778-3.371c13.444-17.767,33.912-27.956,56.155-27.956c38.806,0,70.376,31.57,70.376,70.376
		C381.555,379.587,269.358,431.821,248.465,440.815z"/>
</g>
<g>
</g>
<g>
</g>
<g>
</g>
<g>
</g>
<g>
</g>
<g>
</g>
<g>
</g>
<g>
</g>
<g>
</g>
<g>
</g>
<g>
</g>
<g>
</g>
<g>
</g>
<g>
</g>
<g>
</g>
</svg>
