<?xml version="1.0" encoding="iso-8859-1"?>
<!-- Generator: Adobe Illustrator 19.0.0, SVG Export Plug-In . SVG Version: 6.00 Build 0)  -->
<svg version="1.1" id="Capa_1" xmlns="http://www.w3.org/2000/svg" xmlns:xlink="http://www.w3.org/1999/xlink" x="0px" y="0px"
	 viewBox="0 0 470 470" style="enable-background:new 0 0 470 470;" xml:space="preserve">
<g>
	<path d="M164.238,124.387c-16.28,16.576-25.246,38.681-25.246,62.244v103.06l-38.767,38.767c-2.929,2.929-2.929,7.678,0,10.606
		c1.464,1.464,3.384,2.197,5.303,2.197s3.839-0.732,5.303-2.197l30.779-30.779c6.429,18.485,24.016,31.794,44.663,31.794
		c26.071,0,47.282-21.21,47.282-47.282V185.394c0-4.142-3.358-7.5-7.5-7.5s-7.5,3.358-7.5,7.5v107.403
		c0,17.8-14.481,32.282-32.282,32.282c-17.799,0-32.28-14.48-32.281-32.28c0-0.001,0-0.003,0-0.004V186.631
		c0-40.312,32.328-73.107,72.063-73.107s72.063,32.804,72.063,73.125c0,4.142,3.358,7.5,7.5,7.5h51.231
		c0.054,7.006,0.122,18.299,0.122,30.93c0,17.076-13.867,30.967-30.911,30.967h-19.345c-4.142,0-7.5,3.358-7.5,7.5V432.5
		c0,4.142,3.358,7.5,7.5,7.5s7.5-3.358,7.5-7.5V271.046h11.845c25.315,0,45.911-20.621,45.911-45.967
		c0-21.002-0.186-38.339-0.188-38.511c-0.045-4.11-3.389-7.418-7.5-7.418h-51.47c-1.695-20.726-10.4-39.943-24.939-54.752
		c-16.381-16.685-38.335-25.873-61.819-25.873C202.572,98.524,180.618,107.709,164.238,124.387z"/>
	<path d="M459.752,108.252L343.191,51.677V7.5c0-4.142-3.358-7.5-7.5-7.5s-7.5,3.358-7.5,7.5v36.896L238.275,0.753
		c-2.068-1.004-4.481-1.004-6.55,0l-221.478,107.5c-3.727,1.809-5.281,6.295-3.472,10.022c1.809,3.726,6.295,5.282,10.022,3.472
		l9.32-4.524V462.5c0,4.142,3.358,7.5,7.5,7.5h402.766c4.142,0,7.5-3.358,7.5-7.5V117.223l9.32,4.524
		c1.055,0.512,2.17,0.754,3.27,0.754c2.782,0,5.456-1.555,6.752-4.227C465.034,114.548,463.479,110.061,459.752,108.252z
		 M428.883,455H41.117V109.942L235,15.837l193.883,94.105V455z"/>
</g>
<g>
</g>
<g>
</g>
<g>
</g>
<g>
</g>
<g>
</g>
<g>
</g>
<g>
</g>
<g>
</g>
<g>
</g>
<g>
</g>
<g>
</g>
<g>
</g>
<g>
</g>
<g>
</g>
<g>
</g>
</svg>
