<svg xmlns="http://www.w3.org/2000/svg" viewBox="0 0 308.07 80.45"><defs><style>.cls-1,.cls-2{fill:#fa6291;}.cls-2{font-size:49px;font-family:Nickainley-Normal, Nickainley;}</style></defs><title>Asset 1</title><g id="Layer_2" data-name="Layer 2"><g id="Layer_1-2" data-name="Layer 1"><path class="cls-1" d="M24.66,75.15c-3.1,1.39-9.08,3.6-12.14.95-2.12-1.84-2-6.48-1.85-9,.48-8,5-15.95,9.87-22.17,5.77-7.44,14.4-13.12,23.81-13.44,7.14-.24,14.18,2.63,19.76,7.1S73.9,49,77.14,55.39c1.58,3.11,3,6.44,3,9.92s-1.49,7.19-4.56,8.85a10.46,10.46,0,0,1-8.15.31,45.85,45.85,0,0,1-7.51-3.69c-4.55-2.44-9.58-4.35-14.73-4C37.77,67.2,31.46,72.1,24.66,75.15Z"/><path class="cls-1" d="M17.6,35.91c.92,7.53-4.81,11.63-10.65,6A26,26,0,0,1,.08,27.26c-.26-2.5.05-5.33,1.94-7a6.23,6.23,0,0,1,6.79-.53,12.89,12.89,0,0,1,5,5.1A28.18,28.18,0,0,1,17.6,35.91Z"/><path class="cls-1" d="M39.21,15.63c1.2,5.07-.23,12.89-7.08,12.31-8.2-.68-9.15-14.83-8.26-20.66.33-2.19,1.18-4.63,3.24-5.43a4.75,4.75,0,0,1,4.32.74,12.55,12.55,0,0,1,3,3.37A29.54,29.54,0,0,1,39.21,15.63Z"/><path class="cls-1" d="M67.72,12.31c.07-3.36-.67-6.88-2.88-9.42S58.74-.87,55.76.69,51.53,6.12,51,9.57c-.69,4.68-1.81,13.29,1.61,17.23,2.14,2.47,5.35,1.19,7.81-.24C65.26,23.76,67.6,17.65,67.72,12.31Z"/><path class="cls-1" d="M87.89,43c-4.83,4.55-14.69,3.14-13.82-4.71.59-5.3,4.2-10.77,7.48-14.84,2-2.49,4.92-4.89,8-4.2,2.47.55,4.17,3,4.6,5.48a17.39,17.39,0,0,1-.83,7.48C92.27,36.19,90.86,40.24,87.89,43Z"/><text class="cls-2" transform="translate(109.68 66.59)">pet adoption</text></g></g></svg>