<svg xmlns="http://www.w3.org/2000/svg" viewBox="0 0 295.89 72.13"><defs><style>.cls-1{font-size:49px;font-family:Nickainley-Normal, Nickainley;}.cls-1,.cls-3{fill:#fa6291;}.cls-2{fill:#fff;}</style></defs><title>Asset 2</title><g id="Layer_2" data-name="Layer 2"><g id="Layer_1-2" data-name="Layer 1"><text class="cls-1" transform="translate(97.5 58.26)">pet adoption</text><path class="cls-2" d="M51.93,11.88a.91.91,0,0,0-.24,1.77c5.28,1.72,2.13,8.21,2.61,12a.65.65,0,0,0,1.1.45C58.53,23.08,58.07,11.13,51.93,11.88Z"/><path class="cls-2" d="M33.56,17.85a7.52,7.52,0,0,0-5-3.6.69.69,0,0,0-.36,1.34,6.59,6.59,0,0,1,3.63,3.5c.61,1.3.38,2.92,1.12,4.12a.46.46,0,0,0,.72.09C35.26,22.08,34.36,19.27,33.56,17.85Z"/><path class="cls-2" d="M14.1,30.22c-.9-1.78-2.52-3.47-4.67-2.93A.89.89,0,0,0,9.66,29c3.64,0,3.28,6.46,5.14,8.49a.41.41,0,0,0,.64-.08C16.35,35.34,15.08,32.14,14.1,30.22Z"/><path class="cls-3" d="M21.74,66.25c-2.73,1.22-8,3.17-10.7.83-1.88-1.62-1.77-5.71-1.64-7.95.43-7.07,4.45-14.06,8.7-19.54C23.19,33,30.8,28,39.1,27.74A26.92,26.92,0,0,1,56.51,34,44.65,44.65,0,0,1,68,48.83a20.45,20.45,0,0,1,2.66,8.74c0,3.08-1.31,6.34-4,7.8a9.24,9.24,0,0,1-7.19.28,41.16,41.16,0,0,1-6.63-3.26c-4-2.15-8.44-3.83-13-3.55C33.29,59.24,27.73,63.55,21.74,66.25Z"/><path class="cls-3" d="M15.52,31.66c.8,6.63-4.24,10.25-9.39,5.26A23,23,0,0,1,.07,24c-.22-2.21,0-4.7,1.71-6.16a5.51,5.51,0,0,1,6-.47,11.32,11.32,0,0,1,4.39,4.5A24.79,24.79,0,0,1,15.52,31.66Z"/><path class="cls-3" d="M34.56,13.77c1.06,4.47-.2,11.37-6.24,10.86C21.1,24,20.26,11.56,21,6.42c.29-1.93,1-4.08,2.86-4.79a4.22,4.22,0,0,1,3.81.65,11.24,11.24,0,0,1,2.68,3A25.86,25.86,0,0,1,34.56,13.77Z"/><path class="cls-3" d="M59.7,10.85a12.21,12.21,0,0,0-2.54-8.3C55.21.31,51.78-.76,49.15.61S45.42,5.39,45,8.43c-.62,4.13-1.6,11.72,1.41,15.2,1.89,2.18,4.72,1,6.89-.22C57.52,21,59.59,15.56,59.7,10.85Z"/><path class="cls-3" d="M77.47,37.94c-4.25,4-12.94,2.77-12.17-4.15.52-4.68,3.7-9.5,6.59-13.09C73.65,18.51,76.22,16.4,79,17c2.17.48,3.67,2.63,4,4.83a15.25,15.25,0,0,1-.73,6.58C81.33,31.9,80.09,35.47,77.47,37.94Z"/><path class="cls-2" d="M46.31,32.39c0-.12-.06-.22-.08-.34a1.79,1.79,0,0,0-3.37-.21,1.79,1.79,0,0,0,.38,1.95,1.84,1.84,0,0,0,2.17.28c-.49.24.16-.06.26-.1A1.43,1.43,0,0,0,46.31,32.39Z"/><path class="cls-2" d="M50.92,34.3c-1-.47-2.12.75-1.23,1.59C53,39,56.6,41.42,59.23,45.24A20.12,20.12,0,0,1,62.41,61c-.47,2.18,3,3,3.3.91A25.9,25.9,0,0,0,50.92,34.3Z"/><path class="cls-2" d="M78.32,20.39c-.92-.48-1.94.71-1.14,1.48,1.77,1.68.75,5.6.22,7.52-.48,1.75-1.51,3.3-1.57,5.11a.75.75,0,0,0,1.12.64c2.23-1.59,2.89-5.17,3.23-7.74C80.5,25,80.85,21.72,78.32,20.39Z"/></g></g></svg>